<?xml version="1.0" encoding="UTF-8"?>
<svg id="Layer_2" data-name="Layer 2" xmlns="http://www.w3.org/2000/svg" viewBox="0 0 570.53 307">
  <defs>
    <style>
      .cls-1, .cls-2 {
        font-family: KronaOne-Regular, 'Krona One';
      }

      .cls-1, .cls-2, .cls-3 {
        fill: #1b2020;
      }

      .cls-1, .cls-3 {
        font-size: 23.52px;
      }

      .cls-4 {
        letter-spacing: 0em;
      }

      .cls-5 {
        letter-spacing: -.02em;
      }

      .cls-6 {
        fill: none;
        stroke: #1b2020;
        stroke-miterlimit: 10;
        stroke-width: 2px;
      }

      .cls-2 {
        font-size: 55.34px;
      }

      .cls-7 {
        fill: #ff7ab5;
        stroke-width: 0px;
      }

      .cls-3 {
        font-family: Lato-Regular, Lato;
      }
    </style>
  </defs>
  <g id="Layer_1-2" data-name="Layer 1">
    <g>
      <path class="cls-7" d="m553.46,282.39c0-9.42,7.64-17.06,17.07-17.06v-8.85c-9.43,0-17.07-7.64-17.07-17.06s7.64-17.06,17.07-17.06v-8.85c-9.43,0-17.07-7.64-17.07-17.06s7.64-17.06,17.07-17.06v-8.85c-9.43,0-17.07-7.64-17.07-17.06s7.64-17.06,17.07-17.06v-8.85c-9.43,0-17.07-7.64-17.07-17.06s7.64-17.06,17.07-17.06v-8.85c-9.43,0-17.07-7.64-17.07-17.06s7.64-17.06,17.07-17.06v-8.85c-9.43,0-17.07-7.64-17.07-17.06s7.64-17.06,17.07-17.06V0H0v7.56c9.43,0,17.07,7.64,17.07,17.06S9.43,41.67,0,41.67v8.85c9.43,0,17.07,7.64,17.07,17.06s-7.64,17.06-17.07,17.06v8.85c9.43,0,17.07,7.64,17.07,17.06s-7.64,17.06-17.07,17.06v8.85c9.43,0,17.07,7.64,17.07,17.06s-7.64,17.06-17.07,17.06v8.85c9.43,0,17.07,7.64,17.07,17.06s-7.64,17.06-17.07,17.06v8.85c9.43,0,17.07,7.64,17.07,17.06s-7.64,17.06-17.07,17.06v8.85c9.43,0,17.07,7.64,17.07,17.06s-7.64,17.06-17.07,17.06v7.56h570.53v-7.56c-9.43,0-17.07-7.64-17.07-17.06Z"/>
      <text class="cls-2" transform="translate(77.45 261.84)"><tspan x="0" y="0">Helheim</tspan></text>
      <text class="cls-1" transform="translate(85.52 50.66)"><tspan x="0" y="0">FOO</tspan></text>
      <text class="cls-1" transform="translate(119.88 69.13)"><tspan x="0" y="0">FEST</tspan></text>
      <text class="cls-3" transform="translate(80.31 178.42)"><tspan x="0" y="0">Camping area</tspan></text>
      <line class="cls-6" x1="51.28" y1="94.05" x2="519.26" y2="94.05"/>
      <text class="cls-3" transform="translate(396.02 47.03)"><tspan x="0" y="0">Mond</tspan><tspan class="cls-5" x="60.94" y="0">a</tspan><tspan class="cls-4" x="72.49" y="0">y</tspan><tspan x="24.77" y="28.22">July 1</tspan></text>
    </g>
  </g>
</svg>