<?xml version="1.0" encoding="UTF-8"?>
<svg id="Layer_2" data-name="Layer 2" xmlns="http://www.w3.org/2000/svg" viewBox="0 0 570.53 307.29">
  <defs>
    <style>
      .cls-1 {
        letter-spacing: 0em;
      }

      .cls-2, .cls-3 {
        font-family: KronaOne-Regular, 'Krona One';
      }

      .cls-2, .cls-3, .cls-4 {
        fill: #1b2020;
      }

      .cls-2, .cls-4 {
        font-size: 23.54px;
      }

      .cls-5 {
        letter-spacing: -.02em;
      }

      .cls-6 {
        fill: none;
        stroke: #1b2020;
        stroke-miterlimit: 10;
        stroke-width: 2px;
      }

      .cls-3 {
        font-size: 55.39px;
      }

      .cls-4 {
        font-family: Lato-Regular, Lato;
      }

      .cls-7 {
        fill: #7deaef;
        stroke-width: 0px;
      }
    </style>
  </defs>
  <g id="Layer_1-2" data-name="Layer 1">
    <g>
      <path class="cls-7" d="m553.46,282.65c0-9.43,7.64-17.07,17.07-17.07v-8.86c-9.43,0-17.07-7.64-17.07-17.07s7.64-17.07,17.07-17.07v-8.86c-9.43,0-17.07-7.64-17.07-17.07s7.64-17.07,17.07-17.07v-8.86c-9.43,0-17.07-7.64-17.07-17.07s7.64-17.07,17.07-17.07v-8.86c-9.43,0-17.07-7.64-17.07-17.07s7.64-17.07,17.07-17.07v-8.86c-9.43,0-17.07-7.64-17.07-17.07s7.64-17.07,17.07-17.07v-8.86c-9.43,0-17.07-7.64-17.07-17.07s7.64-17.07,17.07-17.07V0H0v7.57c9.43,0,17.07,7.64,17.07,17.07S9.43,41.71,0,41.71v8.86c9.43,0,17.07,7.64,17.07,17.07s-7.64,17.07-17.07,17.07v8.86c9.43,0,17.07,7.64,17.07,17.07s-7.64,17.07-17.07,17.07v8.86c9.43,0,17.07,7.64,17.07,17.07s-7.64,17.07-17.07,17.07v8.86c9.43,0,17.07,7.64,17.07,17.07s-7.64,17.07-17.07,17.07v8.86c9.43,0,17.07,7.64,17.07,17.07s-7.64,17.07-17.07,17.07v8.86c9.43,0,17.07,7.64,17.07,17.07s-7.64,17.07-17.07,17.07v7.57h570.53v-7.57c-9.43,0-17.07-7.64-17.07-17.07Z"/>
      <text class="cls-3" transform="translate(77.45 262.09)"><tspan x="0" y="0">Nilfheim</tspan></text>
      <text class="cls-2" transform="translate(85.52 50.71)"><tspan x="0" y="0">FOO</tspan></text>
      <text class="cls-2" transform="translate(119.88 69.19)"><tspan x="0" y="0">FEST</tspan></text>
      <text class="cls-4" transform="translate(80.31 178.59)"><tspan x="0" y="0">Camping area</tspan></text>
      <line class="cls-6" x1="51.28" y1="94.14" x2="519.26" y2="94.14"/>
      <text class="cls-4" transform="translate(396.02 47.07)"><tspan x="0" y="0">Mond</tspan><tspan class="cls-5" x="61" y="0">a</tspan><tspan class="cls-1" x="72.56" y="0">y</tspan><tspan x="24.79" y="28.25">July 1</tspan></text>
    </g>
  </g>
</svg>