<?xml version="1.0" encoding="UTF-8"?>
<svg id="Layer_2" data-name="Layer 2" xmlns="http://www.w3.org/2000/svg" viewBox="0 0 725 307">
  <defs>
    <style>
      .cls-1, .cls-2, .cls-3, .cls-4, .cls-5 {
        fill: #fff0f5;
      }

      .cls-1, .cls-3 {
        font-family: KronaOne-Regular, 'Krona One';
      }

      .cls-1, .cls-5 {
        font-size: 23.52px;
      }

      .cls-6 {
        letter-spacing: -.03em;
      }

      .cls-7 {
        letter-spacing: -.02em;
      }

      .cls-8 {
        fill: none;
        stroke: #fff0f5;
        stroke-miterlimit: 10;
        stroke-width: 2px;
      }

      .cls-2 {
        font-size: 27.67px;
      }

      .cls-2, .cls-5 {
        font-family: Lato-Regular, Lato;
      }

      .cls-3 {
        font-size: 74.4px;
      }

      .cls-9 {
        fill: #333838;
      }

      .cls-9, .cls-4 {
        stroke-width: 0px;
      }
    </style>
  </defs>
  <g id="Layer_1-2" data-name="Layer 1">
    <g>
      <path class="cls-9" d="m708.2,282.39c0-9.42,7.52-17.06,16.8-17.06v-8.85c-9.28,0-16.8-7.64-16.8-17.06s7.52-17.06,16.8-17.06v-8.85c-9.28,0-16.8-7.64-16.8-17.06s7.52-17.06,16.8-17.06v-8.85c-9.28,0-16.8-7.64-16.8-17.06s7.52-17.06,16.8-17.06v-8.85c-9.28,0-16.8-7.64-16.8-17.06s7.52-17.06,16.8-17.06v-8.85c-9.28,0-16.8-7.64-16.8-17.06s7.52-17.06,16.8-17.06v-8.85c-9.28,0-16.8-7.64-16.8-17.06s7.52-17.06,16.8-17.06V0H0v7.56c9.28,0,16.8,7.64,16.8,17.06S9.28,41.67,0,41.67v8.85c9.28,0,16.8,7.64,16.8,17.06s-7.52,17.06-16.8,17.06v8.85c9.28,0,16.8,7.64,16.8,17.06s-7.52,17.06-16.8,17.06v8.85c9.28,0,16.8,7.64,16.8,17.06s-7.52,17.06-16.8,17.06v8.85c9.28,0,16.8,7.64,16.8,17.06s-7.52,17.06-16.8,17.06v8.85c9.28,0,16.8,7.64,16.8,17.06s-7.52,17.06-16.8,17.06v8.85c9.28,0,16.8,7.64,16.8,17.06s-7.52,17.06-16.8,17.06v7.56h725v-7.56c-9.28,0-16.8-7.64-16.8-17.06Z"/>
      <text class="cls-3" transform="translate(76.2 255.45) scale(.98 1)"><tspan x="0" y="0">Regular</tspan></text>
      <text class="cls-1" transform="translate(84.14 50.66) scale(.98 1)"><tspan x="0" y="0">FOO</tspan></text>
      <text class="cls-1" transform="translate(117.95 69.13) scale(.98 1)"><tspan x="0" y="0">FEST</tspan></text>
      <text class="cls-5" transform="translate(587.47 46.8) scale(.98 1)"><tspan x="0" y="0">Price</tspan><tspan x="-42.03" y="28.22">799 DKK</tspan></text>
      <text class="cls-5" transform="translate(322.29 46.64) scale(.98 1)"><tspan x="0" y="0">Mond</tspan><tspan class="cls-7" x="60.94" y="0">a</tspan><tspan x="72.49" y="0">y</tspan><tspan x="12.38" y="28.22">July 1</tspan></text>
      <line class="cls-8" x1="58.56" y1="94.05" x2="666.44" y2="94.05"/>
      <text class="cls-2" transform="translate(83.01 180.66) scale(.98 1)"><tspan x="0" y="0">Tic</tspan><tspan class="cls-6" x="36.33" y="0">k</tspan><tspan x="50" y="0">et type</tspan></text>
      <g>
        <path class="cls-4" d="m490.58,216.46c0-.5.09-.96.28-1.4.19-.44.44-.82.76-1.15s.69-.58,1.12-.77c.43-.19.88-.29,1.37-.29s.95.1,1.38.29.81.45,1.13.77c.32.33.58.71.76,1.15.19.44.28.91.28,1.4s-.09.96-.28,1.4c-.19.44-.44.82-.76,1.14-.32.32-.7.58-1.13.77s-.89.29-1.38.29-.94-.1-1.37-.29c-.43-.19-.8-.45-1.12-.77-.32-.32-.57-.7-.76-1.14-.19-.44-.28-.9-.28-1.4Z"/>
        <path class="cls-4" d="m510.29,216.43v5.79h-1.84v-13.88h3.86c.87,0,1.61.09,2.24.27.63.18,1.15.43,1.56.77s.71.74.91,1.21c.2.47.3,1.01.3,1.59,0,.49-.08.95-.23,1.38-.15.43-.37.81-.66,1.15-.29.34-.64.63-1.06.87-.42.24-.89.42-1.42.54.23.14.43.33.61.59l3.99,5.51h-1.64c-.34,0-.58-.13-.74-.4l-3.55-4.96c-.11-.16-.23-.27-.35-.33-.13-.07-.32-.1-.57-.1h-1.4Zm0-1.37h1.94c.54,0,1.02-.07,1.43-.2s.75-.32,1.03-.56.49-.53.62-.87.21-.71.21-1.11c0-.83-.27-1.45-.81-1.87-.54-.42-1.34-.63-2.4-.63h-2.02v5.24Z"/>
        <path class="cls-4" d="m524.1,212.26c.58,0,1.11.1,1.6.3.49.2.91.48,1.27.85.36.37.63.83.83,1.38.2.54.3,1.17.3,1.86,0,.27-.03.45-.09.54-.06.09-.17.14-.32.14h-6.43c.01.62.09,1.16.25,1.62.15.46.36.84.63,1.15.27.31.58.54.95.69.37.15.78.23,1.24.23.43,0,.79-.05,1.1-.15.31-.1.57-.21.8-.33.22-.12.41-.22.56-.32.15-.1.28-.15.39-.15.14,0,.25.05.32.16l.48.63c-.21.26-.46.48-.75.67-.29.19-.61.35-.94.47s-.68.21-1.04.28c-.36.06-.71.09-1.06.09-.67,0-1.28-.12-1.85-.34-.56-.23-1.05-.57-1.46-1.01-.41-.44-.73-.99-.96-1.64-.23-.65-.34-1.4-.34-2.25,0-.68.1-1.32.31-1.92s.5-1.11.89-1.54c.39-.44.86-.78,1.42-1.03.56-.25,1.19-.37,1.89-.37Zm.04,1.27c-.82,0-1.46.24-1.94.72-.47.48-.76,1.15-.88,2h5.26c0-.4-.05-.77-.16-1.1-.11-.33-.27-.62-.48-.86s-.47-.43-.77-.56c-.3-.13-.65-.2-1.04-.2Z"/>
        <path class="cls-4" d="m533.52,212.25c.42,0,.81.05,1.18.14.37.09.7.23,1,.41h2.62v.64c0,.21-.13.35-.4.41l-1.1.15c.22.42.32.89.32,1.4,0,.48-.09.91-.27,1.3-.18.39-.43.72-.75,1-.32.28-.7.49-1.14.64-.44.15-.93.22-1.46.22-.45,0-.88-.05-1.28-.16-.2.13-.36.28-.46.43-.1.15-.16.3-.16.45,0,.24.09.42.28.55.18.12.43.21.73.27.31.05.65.08,1.04.08h1.19c.4,0,.8.04,1.19.11.39.07.73.19,1.04.35.31.16.55.39.73.68.18.29.28.66.28,1.12,0,.42-.1.84-.31,1.24-.21.4-.5.75-.89,1.06s-.86.56-1.42.75c-.56.19-1.19.28-1.9.28s-1.32-.07-1.86-.21c-.53-.14-.97-.33-1.32-.57-.35-.24-.61-.52-.79-.83s-.26-.64-.26-.98c0-.48.15-.9.45-1.24.3-.34.72-.61,1.25-.81-.27-.13-.49-.3-.65-.52s-.24-.5-.24-.87c0-.14.03-.29.08-.44s.13-.3.23-.45c.11-.15.23-.29.39-.43.15-.14.33-.25.53-.36-.48-.27-.85-.63-1.12-1.08-.27-.45-.41-.97-.41-1.57,0-.48.09-.91.27-1.3.18-.39.43-.72.76-1s.71-.49,1.16-.63c.45-.15.94-.22,1.47-.22Zm3.01,10.47c0-.25-.07-.45-.2-.6-.13-.15-.32-.27-.54-.35-.23-.08-.49-.14-.79-.18-.3-.04-.61-.06-.94-.06h-1.01c-.34,0-.67-.04-.98-.13-.36.17-.66.39-.88.64-.23.25-.34.55-.34.9,0,.22.06.43.17.62s.28.36.51.5c.23.14.52.25.86.33.35.08.75.12,1.23.12s.87-.04,1.23-.13.67-.21.92-.37c.25-.16.44-.35.58-.56.13-.22.2-.46.2-.72Zm-3.01-5.29c.34,0,.65-.05.91-.15s.48-.23.66-.41c.18-.17.31-.38.4-.62s.13-.51.13-.8c0-.6-.18-1.08-.54-1.43-.36-.35-.88-.53-1.57-.53s-1.2.18-1.56.53c-.36.36-.54.83-.54,1.43,0,.29.05.56.14.8.09.24.23.45.41.62.18.17.4.31.66.41s.56.15.9.15Z"/>
        <path class="cls-4" d="m541.48,212.41v6.26c0,.74.17,1.32.51,1.72.34.41.84.61,1.53.61.5,0,.96-.12,1.4-.36.44-.24.84-.57,1.21-1v-7.23h1.7v9.81h-1.01c-.24,0-.39-.12-.46-.36l-.13-1.06c-.42.47-.89.85-1.41,1.14-.52.29-1.12.43-1.79.43-.53,0-.99-.09-1.4-.27-.4-.18-.74-.43-1.02-.75-.27-.32-.48-.71-.61-1.17-.14-.46-.21-.96-.21-1.52v-6.26h1.7Z"/>
        <path class="cls-4" d="m552.51,207.96v14.27h-1.7v-14.27h1.7Z"/>
        <path class="cls-4" d="m562.6,222.22h-.75c-.17,0-.3-.03-.4-.08-.1-.05-.17-.16-.2-.33l-.19-.91c-.25.23-.5.44-.74.62-.24.18-.5.34-.76.46s-.55.22-.85.29c-.3.06-.64.1-1.01.1s-.73-.05-1.05-.16c-.33-.11-.61-.27-.85-.48-.24-.21-.43-.48-.58-.81-.14-.33-.21-.71-.21-1.16,0-.39.1-.76.31-1.12.21-.36.55-.68,1.02-.96.47-.28,1.08-.51,1.84-.68.76-.18,1.68-.27,2.78-.27v-.77c0-.77-.16-1.35-.48-1.74-.32-.39-.8-.59-1.43-.59-.41,0-.76.05-1.04.16-.28.11-.53.23-.73.36-.21.13-.38.25-.53.36s-.3.16-.44.16c-.11,0-.21-.03-.3-.09-.09-.06-.15-.14-.21-.23l-.31-.55c.53-.52,1.11-.91,1.73-1.17.62-.26,1.3-.39,2.05-.39.54,0,1.02.09,1.44.27.42.18.77.43,1.06.76.29.32.5.71.65,1.17.15.46.22.96.22,1.51v6.28Zm-4.41-1.06c.3,0,.57-.03.82-.09s.48-.15.7-.26.43-.25.63-.41c.2-.16.4-.35.59-.55v-2.02c-.78,0-1.45.05-1.99.15s-.99.23-1.33.39c-.34.16-.59.35-.75.58-.16.22-.23.47-.23.74s.04.48.12.67c.08.19.19.34.33.46.14.12.31.21.5.26.19.06.4.08.62.08Z"/>
        <path class="cls-4" d="m565.18,222.22v-9.81h.97c.18,0,.31.04.38.11.07.07.12.19.14.37l.11,1.53c.33-.68.74-1.22,1.23-1.6.49-.38,1.06-.58,1.71-.58.27,0,.51.03.72.09.22.06.42.15.6.26l-.22,1.29c-.04.16-.14.24-.3.24-.09,0-.23-.03-.41-.09s-.44-.09-.77-.09c-.59,0-1.09.17-1.48.52s-.73.86-1,1.52v6.25h-1.7Z"/>
        <path class="cls-4" d="m583.13,214.15c-.05.07-.1.13-.15.17-.05.04-.12.06-.22.06s-.2-.04-.31-.12c-.11-.08-.25-.17-.42-.27-.17-.1-.38-.19-.62-.27-.25-.08-.54-.12-.9-.12-.47,0-.89.08-1.25.26-.36.17-.67.42-.91.74-.25.32-.43.71-.55,1.17-.12.46-.19.97-.19,1.54s.07,1.12.2,1.58c.13.46.32.85.56,1.16.24.31.54.55.88.72.35.17.74.25,1.17.25s.75-.05,1.02-.15c.27-.1.49-.21.67-.33.18-.12.32-.23.44-.33.11-.1.23-.15.34-.15.15,0,.25.05.32.16l.48.63c-.42.52-.94.91-1.57,1.15-.63.24-1.29.36-1.99.36-.6,0-1.17-.11-1.68-.34-.52-.23-.97-.55-1.35-.98-.38-.43-.68-.96-.9-1.58-.22-.63-.33-1.34-.33-2.14,0-.73.1-1.4.3-2.02.2-.62.49-1.15.88-1.6.38-.45.86-.8,1.43-1.05.57-.25,1.21-.38,1.95-.38.67,0,1.27.11,1.79.33.52.22.98.54,1.38.94l-.45.62Z"/>
        <path class="cls-4" d="m592.55,222.22h-.75c-.17,0-.3-.03-.4-.08-.1-.05-.17-.16-.2-.33l-.19-.91c-.25.23-.5.44-.74.62-.24.18-.5.34-.76.46s-.55.22-.85.29c-.3.06-.64.1-1.01.1s-.73-.05-1.05-.16c-.33-.11-.61-.27-.85-.48-.24-.21-.43-.48-.58-.81-.14-.33-.21-.71-.21-1.16,0-.39.1-.76.31-1.12.21-.36.55-.68,1.02-.96.47-.28,1.08-.51,1.84-.68.76-.18,1.68-.27,2.78-.27v-.77c0-.77-.16-1.35-.48-1.74-.32-.39-.8-.59-1.43-.59-.41,0-.76.05-1.04.16-.28.11-.53.23-.73.36-.21.13-.38.25-.53.36s-.3.16-.44.16c-.11,0-.21-.03-.3-.09-.09-.06-.15-.14-.21-.23l-.31-.55c.53-.52,1.11-.91,1.73-1.17.62-.26,1.3-.39,2.05-.39.54,0,1.02.09,1.44.27.42.18.77.43,1.06.76.29.32.5.71.65,1.17.15.46.22.96.22,1.51v6.28Zm-4.41-1.06c.3,0,.57-.03.82-.09s.48-.15.7-.26.43-.25.63-.41c.2-.16.4-.35.59-.55v-2.02c-.78,0-1.45.05-1.99.15s-.99.23-1.33.39c-.34.16-.59.35-.75.58-.16.22-.23.47-.23.74s.04.48.12.67c.08.19.19.34.33.46.14.12.31.21.5.26.19.06.4.08.62.08Z"/>
        <path class="cls-4" d="m595.12,222.22v-9.81h1.01c.24,0,.39.12.46.36l.12,1.01c.36-.45.75-.81,1.2-1.09.44-.28.96-.43,1.54-.43.66,0,1.18.18,1.59.55.4.37.69.87.87,1.49.13-.36.31-.66.53-.92.22-.26.47-.47.74-.64s.56-.29.87-.37c.31-.08.62-.12.94-.12.51,0,.96.08,1.36.25.4.17.73.41,1.01.72.28.32.49.71.63,1.17s.22.99.22,1.58v6.25h-1.7v-6.25c0-.77-.17-1.35-.5-1.75-.33-.4-.81-.6-1.44-.6-.28,0-.54.05-.8.15-.25.1-.47.25-.66.44-.19.19-.34.44-.45.73s-.17.63-.17,1.02v6.25h-1.7v-6.25c0-.79-.16-1.38-.47-1.76-.31-.39-.77-.58-1.36-.58-.42,0-.81.12-1.17.34-.36.23-.69.54-.99.93v7.31h-1.7Z"/>
        <path class="cls-4" d="m610.78,225.54v-13.13h1.01c.24,0,.39.12.46.36l.14,1.16c.41-.51.89-.92,1.42-1.23.53-.31,1.14-.46,1.84-.46.55,0,1.06.11,1.51.33.45.22.84.54,1.15.96.32.42.56.95.73,1.57s.26,1.35.26,2.16c0,.72-.1,1.4-.29,2.02-.19.62-.46,1.16-.82,1.62-.36.46-.79.81-1.31,1.08-.52.26-1.1.39-1.75.39-.6,0-1.11-.1-1.53-.3-.42-.2-.8-.48-1.12-.85v4.34h-1.7Zm4.3-11.91c-.55,0-1.04.13-1.46.39-.42.26-.8.62-1.15,1.09v4.75c.31.43.65.73,1.03.9.37.17.79.26,1.25.26.9,0,1.59-.33,2.07-.98.48-.65.72-1.58.72-2.79,0-.64-.06-1.19-.17-1.65-.11-.46-.27-.83-.48-1.13s-.47-.51-.77-.64c-.3-.14-.65-.2-1.04-.2Z"/>
        <path class="cls-4" d="m623.58,209.33c0,.17-.03.33-.1.47-.07.15-.16.27-.27.39s-.24.2-.39.27-.3.1-.47.1-.32-.03-.46-.1c-.14-.06-.27-.15-.38-.27s-.2-.24-.26-.39c-.06-.14-.09-.3-.09-.47s.03-.33.09-.48c.06-.15.15-.28.26-.4s.24-.2.38-.27c.14-.06.3-.1.46-.1s.32.03.47.1.27.15.39.27.2.25.27.4c.07.15.1.31.1.48Zm-.38,3.08v9.81h-1.7v-9.81h1.7Z"/>
        <path class="cls-4" d="m626.2,222.22v-9.81h1.01c.24,0,.39.12.46.36l.13,1.07c.42-.47.89-.85,1.41-1.14.52-.29,1.12-.44,1.8-.44.53,0,.99.09,1.4.27.4.18.74.43,1.01.76.27.33.48.72.62,1.18.14.46.21.97.21,1.52v6.25h-1.7v-6.25c0-.74-.17-1.32-.5-1.73s-.84-.62-1.53-.62c-.5,0-.97.12-1.41.37-.44.25-.84.58-1.21,1v7.22h-1.7Z"/>
        <path class="cls-4" d="m640.05,212.25c.42,0,.81.05,1.18.14.37.09.7.23,1,.41h2.62v.64c0,.21-.13.35-.4.41l-1.1.15c.22.42.32.89.32,1.4,0,.48-.09.91-.27,1.3-.18.39-.43.72-.75,1-.32.28-.7.49-1.14.64-.44.15-.93.22-1.46.22-.45,0-.88-.05-1.28-.16-.2.13-.36.28-.46.43-.1.15-.16.3-.16.45,0,.24.09.42.28.55.18.12.43.21.73.27.31.05.65.08,1.04.08h1.19c.4,0,.8.04,1.19.11.39.07.73.19,1.04.35.31.16.55.39.73.68.18.29.28.66.28,1.12,0,.42-.1.84-.31,1.24-.21.4-.5.75-.89,1.06s-.86.56-1.42.75c-.56.19-1.19.28-1.9.28s-1.32-.07-1.86-.21c-.53-.14-.97-.33-1.32-.57-.35-.24-.61-.52-.79-.83s-.26-.64-.26-.98c0-.48.15-.9.45-1.24.3-.34.72-.61,1.25-.81-.27-.13-.49-.3-.65-.52s-.24-.5-.24-.87c0-.14.03-.29.08-.44s.13-.3.23-.45c.11-.15.23-.29.39-.43.15-.14.33-.25.53-.36-.48-.27-.85-.63-1.12-1.08-.27-.45-.41-.97-.41-1.57,0-.48.09-.91.27-1.3.18-.39.43-.72.76-1s.71-.49,1.16-.63c.45-.15.94-.22,1.47-.22Zm3.01,10.47c0-.25-.07-.45-.2-.6-.13-.15-.32-.27-.54-.35-.23-.08-.49-.14-.79-.18-.3-.04-.61-.06-.94-.06h-1.01c-.34,0-.67-.04-.98-.13-.36.17-.66.39-.88.64-.23.25-.34.55-.34.9,0,.22.06.43.17.62s.28.36.51.5c.23.14.52.25.86.33.35.08.75.12,1.23.12s.87-.04,1.23-.13.67-.21.92-.37c.25-.16.44-.35.58-.56.13-.22.2-.46.2-.72Zm-3.01-5.29c.34,0,.65-.05.91-.15s.48-.23.66-.41c.18-.17.31-.38.4-.62s.13-.51.13-.8c0-.6-.18-1.08-.54-1.43-.36-.35-.88-.53-1.57-.53s-1.2.18-1.56.53c-.36.36-.54.83-.54,1.43,0,.29.05.56.14.8.09.24.23.45.41.62.18.17.4.31.66.41s.56.15.9.15Z"/>
        <path class="cls-4" d="m490.58,251.05c0-.5.09-.96.28-1.4.19-.44.44-.82.76-1.15s.69-.58,1.12-.77c.43-.19.88-.29,1.37-.29s.95.1,1.38.29.81.45,1.13.77c.32.33.58.71.76,1.15.19.44.28.91.28,1.4s-.09.96-.28,1.4c-.19.44-.44.82-.76,1.14-.32.32-.7.58-1.13.77s-.89.29-1.38.29-.94-.1-1.37-.29c-.43-.19-.8-.45-1.12-.77-.32-.32-.57-.7-.76-1.14-.19-.44-.28-.9-.28-1.4Z"/>
        <path class="cls-4" d="m516.68,242.93v1.53h-6.56v4.85h5.61v1.53h-5.61v5.97h-1.86v-13.88h8.42Z"/>
        <path class="cls-4" d="m519.68,247v6.26c0,.74.17,1.32.51,1.72.34.41.84.61,1.53.61.5,0,.96-.12,1.4-.36.44-.24.84-.57,1.21-1v-7.23h1.7v9.81h-1.01c-.24,0-.39-.12-.46-.36l-.13-1.06c-.42.47-.89.85-1.41,1.14-.52.29-1.12.43-1.79.43-.53,0-.99-.09-1.4-.27-.4-.18-.74-.43-1.02-.75-.27-.32-.48-.71-.61-1.17-.14-.46-.21-.96-.21-1.52v-6.26h1.7Z"/>
        <path class="cls-4" d="m530.71,242.54v14.27h-1.7v-14.27h1.7Z"/>
        <path class="cls-4" d="m535.59,242.54v14.27h-1.7v-14.27h1.7Z"/>
        <path class="cls-4" d="m542.65,256.81v-8.34l-1.07-.13c-.13-.03-.24-.08-.33-.15-.09-.07-.13-.17-.13-.3v-.71h1.53v-.95c0-.56.08-1.06.23-1.5.16-.44.38-.8.67-1.1.29-.3.64-.53,1.04-.68.41-.15.86-.23,1.37-.23.43,0,.83.07,1.2.19l-.04.86c0,.13-.06.21-.16.23-.1.03-.25.04-.43.04h-.29c-.29,0-.56.04-.8.12s-.44.2-.62.38c-.17.17-.3.4-.4.69-.09.28-.14.64-.14,1.06v.9h2.79v1.25h-2.74v8.37h-1.71Z"/>
        <path class="cls-4" d="m552.52,246.84c.58,0,1.11.1,1.6.3.49.2.91.48,1.27.85.36.37.63.83.83,1.38.2.54.3,1.17.3,1.86,0,.27-.03.45-.09.54-.06.09-.17.14-.32.14h-6.43c.01.62.09,1.16.25,1.62.15.46.36.84.63,1.15.27.31.58.54.95.69.37.15.78.23,1.24.23.43,0,.79-.05,1.1-.15.31-.1.57-.21.8-.33.22-.12.41-.22.56-.32.15-.1.28-.15.39-.15.14,0,.25.05.32.16l.48.63c-.21.26-.46.48-.75.67-.29.19-.61.35-.94.47s-.68.21-1.04.28c-.36.06-.71.09-1.06.09-.67,0-1.28-.12-1.85-.34-.56-.23-1.05-.57-1.46-1.01-.41-.44-.73-.99-.96-1.64-.23-.65-.34-1.4-.34-2.25,0-.68.1-1.32.31-1.92s.5-1.11.89-1.54c.39-.44.86-.78,1.42-1.03.56-.25,1.19-.37,1.89-.37Zm.04,1.27c-.82,0-1.46.24-1.94.72-.47.48-.76,1.15-.88,2h5.26c0-.4-.05-.77-.16-1.1-.11-.33-.27-.62-.48-.86s-.47-.43-.77-.56c-.3-.13-.65-.2-1.04-.2Z"/>
        <path class="cls-4" d="m564.22,248.62c-.08.14-.19.21-.35.21-.09,0-.2-.04-.32-.11-.12-.07-.27-.15-.44-.24s-.38-.17-.62-.24c-.24-.07-.53-.11-.86-.11-.29,0-.54.04-.77.11-.23.07-.42.18-.59.31-.16.13-.29.28-.37.45s-.13.36-.13.56c0,.25.07.46.21.63.14.17.33.31.57.44.23.12.5.23.8.32s.61.19.92.3c.31.11.62.22.92.35.3.13.57.29.8.48.24.19.42.43.57.71.14.28.21.62.21,1.01,0,.45-.08.87-.24,1.25s-.39.72-.71,1c-.31.28-.69.5-1.14.66-.45.16-.97.24-1.56.24-.67,0-1.29-.11-1.83-.33-.55-.22-1.01-.51-1.39-.86l.4-.66c.05-.08.11-.15.18-.19.07-.04.16-.07.28-.07s.23.04.36.14c.13.09.28.19.46.3.18.11.4.21.66.3.26.09.58.14.97.14.33,0,.62-.04.87-.13.25-.09.46-.2.62-.35.17-.15.29-.32.37-.51.08-.19.12-.4.12-.62,0-.27-.07-.5-.21-.67-.14-.18-.33-.33-.57-.46s-.5-.24-.81-.33-.61-.19-.92-.3c-.32-.1-.62-.22-.93-.35-.3-.13-.57-.3-.81-.5-.24-.2-.42-.45-.57-.74-.14-.29-.21-.65-.21-1.07,0-.37.08-.73.23-1.08.15-.34.38-.65.67-.91.29-.26.65-.47,1.08-.62.43-.15.91-.23,1.46-.23.64,0,1.21.1,1.71.31.51.2.94.48,1.31.84l-.38.63Z"/>
        <path class="cls-4" d="m569.9,256.97c-.76,0-1.35-.22-1.76-.65s-.62-1.06-.62-1.87v-6h-1.16c-.1,0-.19-.03-.26-.09-.07-.06-.1-.16-.1-.29v-.69l1.58-.2.39-3.03c.01-.1.05-.18.12-.24.07-.06.16-.09.27-.09h.86v3.38h2.77v1.25h-2.77v5.89c0,.41.1.72.3.92.2.2.45.3.76.3.18,0,.33-.02.46-.07.13-.05.24-.1.34-.16.1-.06.18-.11.24-.16.07-.05.13-.07.18-.07.09,0,.17.05.24.16l.5.82c-.29.28-.65.5-1.06.65s-.84.24-1.28.24Z"/>
        <path class="cls-4" d="m576.35,243.92c0,.17-.03.33-.1.47-.07.15-.16.27-.27.39s-.24.2-.39.27-.3.1-.47.1-.32-.03-.46-.1c-.14-.06-.27-.15-.38-.27s-.2-.24-.26-.39c-.06-.14-.09-.3-.09-.47s.03-.33.09-.48c.06-.15.15-.28.26-.4s.24-.2.38-.27c.14-.06.3-.1.46-.1s.32.03.47.1.27.15.39.27.2.25.27.4c.07.15.1.31.1.48Zm-.38,3.08v9.81h-1.7v-9.81h1.7Z"/>
        <path class="cls-4" d="m577.75,247h1.39c.13,0,.24.04.33.11.09.07.15.16.19.25l2.45,6.31c.09.23.16.46.21.7s.1.46.14.69c.05-.23.11-.46.16-.69.06-.23.13-.46.22-.7l2.48-6.31c.04-.1.1-.19.19-.26s.19-.1.32-.1h1.33l-3.94,9.81h-1.54l-3.94-9.81Z"/>
        <path class="cls-4" d="m595.83,256.81h-.75c-.17,0-.3-.03-.4-.08-.1-.05-.17-.16-.2-.33l-.19-.91c-.25.23-.5.44-.74.62-.24.18-.5.34-.76.46s-.55.22-.85.29c-.3.06-.64.1-1.01.1s-.73-.05-1.05-.16c-.33-.11-.61-.27-.85-.48-.24-.21-.43-.48-.58-.81-.14-.33-.21-.71-.21-1.16,0-.39.1-.76.31-1.12.21-.36.55-.68,1.02-.96.47-.28,1.08-.51,1.84-.68.76-.18,1.68-.27,2.78-.27v-.77c0-.77-.16-1.35-.48-1.74-.32-.39-.8-.59-1.43-.59-.41,0-.76.05-1.04.16-.28.11-.53.23-.73.36-.21.13-.38.25-.53.36s-.3.16-.44.16c-.11,0-.21-.03-.3-.09-.09-.06-.15-.14-.21-.23l-.31-.55c.53-.52,1.11-.91,1.73-1.17.62-.26,1.3-.39,2.05-.39.54,0,1.02.09,1.44.27.42.18.77.43,1.06.76.29.32.5.71.65,1.17.15.46.22.96.22,1.51v6.28Zm-4.41-1.06c.3,0,.57-.03.82-.09s.48-.15.7-.26.43-.25.63-.41c.2-.16.4-.35.59-.55v-2.02c-.78,0-1.45.05-1.99.15s-.99.23-1.33.39c-.34.16-.59.35-.75.58-.16.22-.23.47-.23.74s.04.48.12.67c.08.19.19.34.33.46.14.12.31.21.5.26.19.06.4.08.62.08Z"/>
        <path class="cls-4" d="m600.29,242.54v14.27h-1.7v-14.27h1.7Z"/>
        <path class="cls-4" d="m614.06,256.81h-.75c-.17,0-.3-.03-.4-.08-.1-.05-.17-.16-.2-.33l-.19-.91c-.25.23-.5.44-.74.62-.24.18-.5.34-.76.46s-.55.22-.85.29c-.3.06-.64.1-1.01.1s-.73-.05-1.05-.16c-.33-.11-.61-.27-.85-.48-.24-.21-.43-.48-.58-.81-.14-.33-.21-.71-.21-1.16,0-.39.1-.76.31-1.12.21-.36.55-.68,1.02-.96.47-.28,1.08-.51,1.84-.68.76-.18,1.68-.27,2.78-.27v-.77c0-.77-.16-1.35-.48-1.74-.32-.39-.8-.59-1.43-.59-.41,0-.76.05-1.04.16-.28.11-.53.23-.73.36-.21.13-.38.25-.53.36s-.3.16-.44.16c-.11,0-.21-.03-.3-.09-.09-.06-.15-.14-.21-.23l-.31-.55c.53-.52,1.11-.91,1.73-1.17.62-.26,1.3-.39,2.05-.39.54,0,1.02.09,1.44.27.42.18.77.43,1.06.76.29.32.5.71.65,1.17.15.46.22.96.22,1.51v6.28Zm-4.41-1.06c.3,0,.57-.03.82-.09s.48-.15.7-.26.43-.25.63-.41c.2-.16.4-.35.59-.55v-2.02c-.78,0-1.45.05-1.99.15s-.99.23-1.33.39c-.34.16-.59.35-.75.58-.16.22-.23.47-.23.74s.04.48.12.67c.08.19.19.34.33.46.14.12.31.21.5.26.19.06.4.08.62.08Z"/>
        <path class="cls-4" d="m623.23,248.74c-.05.07-.1.13-.15.17-.05.04-.12.06-.22.06s-.2-.04-.31-.12c-.11-.08-.25-.17-.42-.27-.17-.1-.38-.19-.62-.27-.25-.08-.54-.12-.9-.12-.47,0-.89.08-1.25.26-.36.17-.67.42-.91.74-.25.32-.43.71-.55,1.17-.12.46-.19.97-.19,1.54s.07,1.12.2,1.58c.13.46.32.85.56,1.16.24.31.54.55.88.72.35.17.74.25,1.17.25s.75-.05,1.02-.15c.27-.1.49-.21.67-.33.18-.12.32-.23.44-.33.11-.1.23-.15.34-.15.15,0,.25.05.32.16l.48.63c-.42.52-.94.91-1.57,1.15-.63.24-1.29.36-1.99.36-.6,0-1.17-.11-1.68-.34-.52-.23-.97-.55-1.35-.98-.38-.43-.68-.96-.9-1.58-.22-.63-.33-1.34-.33-2.14,0-.73.1-1.4.3-2.02.2-.62.49-1.15.88-1.6.38-.45.86-.8,1.43-1.05.57-.25,1.21-.38,1.95-.38.67,0,1.27.11,1.79.33.52.22.98.54,1.38.94l-.45.62Z"/>
        <path class="cls-4" d="m632.14,248.74c-.05.07-.1.13-.15.17-.05.04-.12.06-.22.06s-.2-.04-.31-.12c-.11-.08-.25-.17-.42-.27-.17-.1-.38-.19-.62-.27-.25-.08-.54-.12-.9-.12-.47,0-.89.08-1.25.26-.36.17-.67.42-.91.74-.25.32-.43.71-.55,1.17-.12.46-.19.97-.19,1.54s.07,1.12.2,1.58c.13.46.32.85.56,1.16.24.31.54.55.88.72.35.17.74.25,1.17.25s.75-.05,1.02-.15c.27-.1.49-.21.67-.33.18-.12.32-.23.44-.33.11-.1.23-.15.34-.15.15,0,.25.05.32.16l.48.63c-.42.52-.94.91-1.57,1.15-.63.24-1.29.36-1.99.36-.6,0-1.17-.11-1.68-.34-.52-.23-.97-.55-1.35-.98-.38-.43-.68-.96-.9-1.58-.22-.63-.33-1.34-.33-2.14,0-.73.1-1.4.3-2.02.2-.62.49-1.15.88-1.6.38-.45.86-.8,1.43-1.05.57-.25,1.21-.38,1.95-.38.67,0,1.27.11,1.79.33.52.22.98.54,1.38.94l-.45.62Z"/>
        <path class="cls-4" d="m638.28,246.84c.58,0,1.11.1,1.6.3.49.2.91.48,1.27.85.36.37.63.83.83,1.38.2.54.3,1.17.3,1.86,0,.27-.03.45-.09.54-.06.09-.17.14-.32.14h-6.43c.01.62.09,1.16.25,1.62.15.46.36.84.63,1.15.27.31.58.54.95.69.37.15.78.23,1.24.23.43,0,.79-.05,1.1-.15.31-.1.57-.21.8-.33.22-.12.41-.22.56-.32.15-.1.28-.15.39-.15.14,0,.25.05.32.16l.48.63c-.21.26-.46.48-.75.67-.29.19-.61.35-.94.47s-.68.21-1.04.28c-.36.06-.71.09-1.06.09-.67,0-1.28-.12-1.85-.34-.56-.23-1.05-.57-1.46-1.01-.41-.44-.73-.99-.96-1.64-.23-.65-.34-1.4-.34-2.25,0-.68.1-1.32.31-1.92s.5-1.11.89-1.54c.39-.44.86-.78,1.42-1.03.56-.25,1.19-.37,1.89-.37Zm.04,1.27c-.82,0-1.46.24-1.94.72-.47.48-.76,1.15-.88,2h5.26c0-.4-.05-.77-.16-1.1-.11-.33-.27-.62-.48-.86s-.47-.43-.77-.56c-.3-.13-.65-.2-1.04-.2Z"/>
        <path class="cls-4" d="m649.98,248.62c-.08.14-.19.21-.35.21-.09,0-.2-.04-.32-.11-.12-.07-.27-.15-.44-.24s-.38-.17-.62-.24c-.24-.07-.53-.11-.86-.11-.29,0-.54.04-.77.11-.23.07-.42.18-.59.31-.16.13-.29.28-.37.45s-.13.36-.13.56c0,.25.07.46.21.63.14.17.33.31.57.44.23.12.5.23.8.32s.61.19.92.3c.31.11.62.22.92.35.3.13.57.29.8.48.24.19.42.43.57.71.14.28.21.62.21,1.01,0,.45-.08.87-.24,1.25s-.39.72-.71,1c-.31.28-.69.5-1.14.66-.45.16-.97.24-1.56.24-.67,0-1.29-.11-1.83-.33-.55-.22-1.01-.51-1.39-.86l.4-.66c.05-.08.11-.15.18-.19.07-.04.16-.07.28-.07s.23.04.36.14c.13.09.28.19.46.3.18.11.4.21.66.3.26.09.58.14.97.14.33,0,.62-.04.87-.13.25-.09.46-.2.62-.35.17-.15.29-.32.37-.51.08-.19.12-.4.12-.62,0-.27-.07-.5-.21-.67-.14-.18-.33-.33-.57-.46s-.5-.24-.81-.33-.61-.19-.92-.3c-.32-.1-.62-.22-.93-.35-.3-.13-.57-.3-.81-.5-.24-.2-.42-.45-.57-.74-.14-.29-.21-.65-.21-1.07,0-.37.08-.73.23-1.08.15-.34.38-.65.67-.91.29-.26.65-.47,1.08-.62.43-.15.91-.23,1.46-.23.64,0,1.21.1,1.71.31.51.2.94.48,1.31.84l-.38.63Z"/>
        <path class="cls-4" d="m658.26,248.62c-.08.14-.19.21-.35.21-.09,0-.2-.04-.32-.11-.12-.07-.27-.15-.44-.24s-.38-.17-.62-.24c-.24-.07-.53-.11-.86-.11-.29,0-.54.04-.77.11-.23.07-.42.18-.59.31-.16.13-.29.28-.37.45s-.13.36-.13.56c0,.25.07.46.21.63.14.17.33.31.57.44.23.12.5.23.8.32s.61.19.92.3c.31.11.62.22.92.35.3.13.57.29.8.48.24.19.42.43.57.71.14.28.21.62.21,1.01,0,.45-.08.87-.24,1.25s-.39.72-.71,1c-.31.28-.69.5-1.14.66-.45.16-.97.24-1.56.24-.67,0-1.29-.11-1.83-.33-.55-.22-1.01-.51-1.39-.86l.4-.66c.05-.08.11-.15.18-.19.07-.04.16-.07.28-.07s.23.04.36.14c.13.09.28.19.46.3.18.11.4.21.66.3.26.09.58.14.97.14.33,0,.62-.04.87-.13.25-.09.46-.2.62-.35.17-.15.29-.32.37-.51.08-.19.12-.4.12-.62,0-.27-.07-.5-.21-.67-.14-.18-.33-.33-.57-.46s-.5-.24-.81-.33-.61-.19-.92-.3c-.32-.1-.62-.22-.93-.35-.3-.13-.57-.3-.81-.5-.24-.2-.42-.45-.57-.74-.14-.29-.21-.65-.21-1.07,0-.37.08-.73.23-1.08.15-.34.38-.65.67-.91.29-.26.65-.47,1.08-.62.43-.15.91-.23,1.46-.23.64,0,1.21.1,1.71.31.51.2.94.48,1.31.84l-.38.63Z"/>
      </g>
    </g>
  </g>
</svg>