<?xml version="1.0" encoding="UTF-8"?>
<svg id="Layer_2" data-name="Layer 2" xmlns="http://www.w3.org/2000/svg" viewBox="0 0 570.53 307">
  <defs>
    <style>
      .cls-1, .cls-2 {
        font-family: KronaOne-Regular, 'Krona One';
      }

      .cls-1, .cls-2, .cls-3, .cls-4 {
        fill: #1b2020;
      }

      .cls-1, .cls-4 {
        font-size: 23.52px;
      }

      .cls-5 {
        fill: none;
        stroke: #1b2020;
        stroke-miterlimit: 10;
        stroke-width: 2px;
      }

      .cls-2 {
        font-size: 49.81px;
      }

      .cls-3, .cls-6 {
        stroke-width: 0px;
      }

      .cls-6 {
        fill: #9ecc78;
      }

      .cls-4 {
        font-family: Lato-Regular, Lato;
      }
    </style>
  </defs>
  <g id="Layer_1-2" data-name="Layer 1">
    <g>
      <path class="cls-6" d="m553.46,282.39c0-9.42,7.64-17.06,17.07-17.06v-8.85c-9.43,0-17.07-7.64-17.07-17.06s7.64-17.06,17.07-17.06v-8.85c-9.43,0-17.07-7.64-17.07-17.06s7.64-17.06,17.07-17.06v-8.85c-9.43,0-17.07-7.64-17.07-17.06s7.64-17.06,17.07-17.06v-8.85c-9.43,0-17.07-7.64-17.07-17.06s7.64-17.06,17.07-17.06v-8.85c-9.43,0-17.07-7.64-17.07-17.06s7.64-17.06,17.07-17.06v-8.85c-9.43,0-17.07-7.64-17.07-17.06s7.64-17.06,17.07-17.06V0H0v7.56c9.43,0,17.07,7.64,17.07,17.06S9.43,41.67,0,41.67v8.85c9.43,0,17.07,7.64,17.07,17.06s-7.64,17.06-17.07,17.06v8.85c9.43,0,17.07,7.64,17.07,17.06s-7.64,17.06-17.07,17.06v8.85c9.43,0,17.07,7.64,17.07,17.06s-7.64,17.06-17.07,17.06v8.85c9.43,0,17.07,7.64,17.07,17.06s-7.64,17.06-17.07,17.06v8.85c9.43,0,17.07,7.64,17.07,17.06s-7.64,17.06-17.07,17.06v8.85c9.43,0,17.07,7.64,17.07,17.06s-7.64,17.06-17.07,17.06v7.56h570.53v-7.56c-9.43,0-17.07-7.64-17.07-17.06Z"/>
      <text class="cls-2" transform="translate(47.26 259.6)"><tspan x="0" y="0">Grøn camping</tspan></text>
      <text class="cls-1" transform="translate(85.52 50.66)"><tspan x="0" y="0">FOO</tspan></text>
      <text class="cls-1" transform="translate(119.88 69.13)"><tspan x="0" y="0">FEST</tspan></text>
      <text class="cls-4" transform="translate(55.63 182.72)"><tspan x="0" y="0">Camping area</tspan></text>
      <line class="cls-5" x1="51.28" y1="94.05" x2="519.26" y2="94.05"/>
      <text class="cls-4" transform="translate(427.4 47.03)"><tspan x="0" y="0">Price</tspan><tspan x="-42.03" y="28.22">249 DKK</tspan></text>
      <g>
        <path class="cls-3" d="m319.64,150.74c0-.5.09-.96.28-1.4.19-.44.44-.82.76-1.15s.69-.58,1.12-.77c.43-.19.88-.29,1.37-.29s.95.1,1.38.29.81.45,1.13.77c.32.33.58.71.76,1.15.19.44.28.91.28,1.4s-.09.96-.28,1.4c-.19.44-.44.82-.76,1.14-.32.32-.7.58-1.13.77s-.89.29-1.38.29-.94-.1-1.37-.29c-.43-.19-.8-.45-1.12-.77-.32-.32-.57-.7-.76-1.14-.19-.44-.28-.9-.28-1.4Z"/>
        <path class="cls-3" d="m346.95,153.63c.1,0,.19.04.28.12l.72.8c-.56.66-1.24,1.17-2.04,1.54-.8.37-1.76.55-2.88.55-.99,0-1.88-.17-2.68-.52-.8-.35-1.48-.83-2.05-1.45-.57-.62-1-1.37-1.32-2.24-.31-.87-.47-1.83-.47-2.88s.17-2,.5-2.88c.33-.87.8-1.62,1.41-2.25.6-.63,1.33-1.11,2.17-1.46.84-.35,1.77-.52,2.79-.52s1.87.16,2.6.47c.73.32,1.38.75,1.94,1.29l-.6.86c-.04.06-.1.12-.15.16-.06.04-.14.06-.25.06-.08,0-.17-.03-.26-.09-.09-.06-.2-.14-.33-.23-.13-.09-.28-.19-.45-.29s-.38-.2-.61-.29c-.24-.09-.51-.17-.82-.23-.31-.06-.67-.09-1.08-.09-.73,0-1.4.13-2.01.38s-1.13.62-1.57,1.09c-.44.47-.78,1.05-1.03,1.72-.25.68-.37,1.44-.37,2.28s.12,1.64.37,2.32c.24.68.58,1.25,1,1.72s.92.82,1.5,1.07c.58.25,1.2.37,1.87.37.41,0,.77-.02,1.1-.07.32-.05.62-.12.9-.23s.53-.23.77-.39c.24-.16.48-.35.72-.57.11-.1.21-.14.32-.14Z"/>
        <path class="cls-3" d="m352.01,142.23v14.27h-1.7v-14.27h1.7Z"/>
        <path class="cls-3" d="m358.83,146.53c.58,0,1.11.1,1.6.3.49.2.91.48,1.27.85.36.37.63.83.83,1.38.2.54.3,1.17.3,1.86,0,.27-.03.45-.09.54-.06.09-.17.14-.32.14h-6.43c.01.62.09,1.16.25,1.62.15.46.36.84.63,1.15.27.31.58.54.95.69.37.15.78.23,1.24.23.43,0,.79-.05,1.1-.15.31-.1.57-.21.8-.33.22-.12.41-.22.56-.32.15-.1.28-.15.39-.15.14,0,.25.05.32.16l.48.63c-.21.26-.46.48-.75.67-.29.19-.61.35-.94.47s-.68.21-1.04.28c-.36.06-.71.09-1.06.09-.67,0-1.28-.12-1.85-.34-.56-.23-1.05-.57-1.46-1.01-.41-.44-.73-.99-.96-1.64-.23-.65-.34-1.4-.34-2.25,0-.68.1-1.32.31-1.92s.5-1.11.89-1.54c.39-.44.86-.78,1.42-1.03.56-.25,1.19-.37,1.89-.37Zm.04,1.27c-.82,0-1.46.24-1.94.72-.47.48-.76,1.15-.88,2h5.26c0-.4-.05-.77-.16-1.1-.11-.33-.27-.62-.48-.86s-.47-.43-.77-.56c-.3-.13-.65-.2-1.04-.2Z"/>
        <path class="cls-3" d="m372.09,156.5h-.75c-.17,0-.3-.03-.4-.08-.1-.05-.17-.16-.2-.33l-.19-.91c-.25.23-.5.44-.74.62-.24.18-.5.34-.76.46s-.55.22-.85.29c-.3.06-.64.1-1.01.1s-.73-.05-1.05-.16c-.33-.11-.61-.27-.85-.48-.24-.21-.43-.48-.58-.81-.14-.33-.21-.71-.21-1.16,0-.39.1-.76.31-1.12.21-.36.55-.68,1.02-.96.47-.28,1.08-.51,1.84-.68.76-.18,1.68-.27,2.78-.27v-.77c0-.77-.16-1.35-.48-1.74-.32-.39-.8-.59-1.43-.59-.41,0-.76.05-1.04.16-.28.11-.53.23-.73.36-.21.13-.38.25-.53.36s-.3.16-.44.16c-.11,0-.21-.03-.3-.09-.09-.06-.15-.14-.21-.23l-.31-.55c.53-.52,1.11-.91,1.73-1.17.62-.26,1.3-.39,2.05-.39.54,0,1.02.09,1.44.27.42.18.77.43,1.06.76.29.32.5.71.65,1.17.15.46.22.96.22,1.51v6.28Zm-4.41-1.06c.3,0,.57-.03.82-.09s.48-.15.7-.26.43-.25.63-.41c.2-.16.4-.35.59-.55v-2.02c-.78,0-1.45.05-1.99.15s-.99.23-1.33.39c-.34.16-.59.35-.75.58-.16.22-.23.47-.23.74s.04.48.12.67c.08.19.19.34.33.46.14.12.31.21.5.26.19.06.4.08.62.08Z"/>
        <path class="cls-3" d="m374.67,156.5v-9.81h1.01c.24,0,.39.12.46.36l.13,1.07c.42-.47.89-.85,1.41-1.14.52-.29,1.12-.44,1.8-.44.53,0,.99.09,1.4.27.4.18.74.43,1.01.76.27.33.48.72.62,1.18.14.46.21.97.21,1.52v6.25h-1.7v-6.25c0-.74-.17-1.32-.5-1.73s-.84-.62-1.53-.62c-.5,0-.97.12-1.41.37-.44.25-.84.58-1.21,1v7.22h-1.7Z"/>
        <path class="cls-3" d="m395.55,148.43c-.05.07-.1.13-.15.17-.05.04-.12.06-.22.06s-.2-.04-.31-.12c-.11-.08-.25-.17-.42-.27-.17-.1-.38-.19-.62-.27-.25-.08-.54-.12-.9-.12-.47,0-.89.08-1.25.26-.36.17-.67.42-.91.74-.25.32-.43.71-.55,1.17-.12.46-.19.97-.19,1.54s.07,1.12.2,1.58c.13.46.32.85.56,1.16.24.31.54.55.88.72.35.17.74.25,1.17.25s.75-.05,1.02-.15c.27-.1.49-.21.67-.33.18-.12.32-.23.44-.33.11-.1.23-.15.34-.15.15,0,.25.05.32.16l.48.63c-.42.52-.94.91-1.57,1.15-.63.24-1.29.36-1.99.36-.6,0-1.17-.11-1.68-.34-.52-.23-.97-.55-1.35-.98-.38-.43-.68-.96-.9-1.58-.22-.63-.33-1.34-.33-2.14,0-.73.1-1.4.3-2.02.2-.62.49-1.15.88-1.6.38-.45.86-.8,1.43-1.05.57-.25,1.21-.38,1.95-.38.67,0,1.27.11,1.79.33.52.22.98.54,1.38.94l-.45.62Z"/>
        <path class="cls-3" d="m404.96,156.5h-.75c-.17,0-.3-.03-.4-.08-.1-.05-.17-.16-.2-.33l-.19-.91c-.25.23-.5.44-.74.62-.24.18-.5.34-.76.46s-.55.22-.85.29c-.3.06-.64.1-1.01.1s-.73-.05-1.05-.16c-.33-.11-.61-.27-.85-.48-.24-.21-.43-.48-.58-.81-.14-.33-.21-.71-.21-1.16,0-.39.1-.76.31-1.12.21-.36.55-.68,1.02-.96.47-.28,1.08-.51,1.84-.68.76-.18,1.68-.27,2.78-.27v-.77c0-.77-.16-1.35-.48-1.74-.32-.39-.8-.59-1.43-.59-.41,0-.76.05-1.04.16-.28.11-.53.23-.73.36-.21.13-.38.25-.53.36s-.3.16-.44.16c-.11,0-.21-.03-.3-.09-.09-.06-.15-.14-.21-.23l-.31-.55c.53-.52,1.11-.91,1.73-1.17.62-.26,1.3-.39,2.05-.39.54,0,1.02.09,1.44.27.42.18.77.43,1.06.76.29.32.5.71.65,1.17.15.46.22.96.22,1.51v6.28Zm-4.41-1.06c.3,0,.57-.03.82-.09s.48-.15.7-.26.43-.25.63-.41c.2-.16.4-.35.59-.55v-2.02c-.78,0-1.45.05-1.99.15s-.99.23-1.33.39c-.34.16-.59.35-.75.58-.16.22-.23.47-.23.74s.04.48.12.67c.08.19.19.34.33.46.14.12.31.21.5.26.19.06.4.08.62.08Z"/>
        <path class="cls-3" d="m407.53,156.5v-9.81h1.01c.24,0,.39.12.46.36l.12,1.01c.36-.45.75-.81,1.2-1.09.44-.28.96-.43,1.54-.43.66,0,1.18.18,1.59.55.4.37.69.87.87,1.49.13-.36.31-.66.53-.92.22-.26.47-.47.74-.64s.56-.29.87-.37c.31-.08.62-.12.94-.12.51,0,.96.08,1.36.25.4.17.73.41,1.01.72.28.32.49.71.63,1.17s.22.99.22,1.58v6.25h-1.7v-6.25c0-.77-.17-1.35-.5-1.75-.33-.4-.81-.6-1.44-.6-.28,0-.54.05-.8.15-.25.1-.47.25-.66.44-.19.19-.34.44-.45.73s-.17.63-.17,1.02v6.25h-1.7v-6.25c0-.79-.16-1.38-.47-1.76-.31-.39-.77-.58-1.36-.58-.42,0-.81.12-1.17.34-.36.23-.69.54-.99.93v7.31h-1.7Z"/>
        <path class="cls-3" d="m423.2,159.82v-13.13h1.01c.24,0,.39.12.46.36l.14,1.16c.41-.51.89-.92,1.42-1.23.53-.31,1.14-.46,1.84-.46.55,0,1.06.11,1.51.33.45.22.84.54,1.15.96.32.42.56.95.73,1.57s.26,1.35.26,2.16c0,.72-.1,1.4-.29,2.02-.19.62-.46,1.16-.82,1.62-.36.46-.79.81-1.31,1.08-.52.26-1.1.39-1.75.39-.6,0-1.11-.1-1.53-.3-.42-.2-.8-.48-1.12-.85v4.34h-1.7Zm4.3-11.91c-.55,0-1.04.13-1.46.39-.42.26-.8.62-1.15,1.09v4.75c.31.43.65.73,1.03.9.37.17.79.26,1.25.26.9,0,1.59-.33,2.07-.98s.72-1.58.72-2.79c0-.64-.06-1.19-.17-1.65-.11-.46-.27-.83-.48-1.13s-.47-.51-.77-.64c-.3-.14-.65-.2-1.04-.2Z"/>
        <path class="cls-3" d="m435.99,143.61c0,.17-.03.33-.1.47-.07.15-.16.27-.27.39s-.24.2-.39.27-.3.1-.47.1-.32-.03-.46-.1c-.14-.06-.27-.15-.38-.27s-.2-.24-.26-.39c-.06-.14-.09-.3-.09-.47s.03-.33.09-.48c.06-.15.15-.28.26-.4s.24-.2.38-.27c.14-.06.3-.1.46-.1s.32.03.47.1.27.15.39.27.2.25.27.4c.07.15.1.31.1.48Zm-.38,3.08v9.81h-1.7v-9.81h1.7Z"/>
        <path class="cls-3" d="m438.61,156.5v-9.81h1.01c.24,0,.39.12.46.36l.13,1.07c.42-.47.89-.85,1.41-1.14.52-.29,1.12-.44,1.8-.44.53,0,.99.09,1.4.27.4.18.74.43,1.01.76.27.33.48.72.62,1.18.14.46.21.97.21,1.52v6.25h-1.7v-6.25c0-.74-.17-1.32-.5-1.73s-.84-.62-1.53-.62c-.5,0-.97.12-1.41.37-.44.25-.84.58-1.21,1v7.22h-1.7Z"/>
        <path class="cls-3" d="m452.47,146.52c.42,0,.81.05,1.18.14.37.09.7.23,1,.41h2.62v.64c0,.21-.13.35-.4.41l-1.1.15c.22.42.32.89.32,1.4,0,.48-.09.91-.27,1.3-.18.39-.43.72-.75,1-.32.28-.7.49-1.14.64-.44.15-.93.22-1.46.22-.45,0-.88-.05-1.28-.16-.2.13-.36.28-.46.43-.1.15-.16.3-.16.45,0,.24.09.42.28.55.18.12.43.21.73.27.31.05.65.08,1.04.08h1.19c.4,0,.8.04,1.19.11.39.07.73.19,1.04.35.31.16.55.39.73.68.18.29.28.66.28,1.12,0,.42-.1.84-.31,1.24-.21.4-.5.75-.89,1.06s-.86.56-1.42.75c-.56.19-1.19.28-1.9.28s-1.32-.07-1.86-.21c-.53-.14-.97-.33-1.32-.57-.35-.24-.61-.52-.79-.83s-.26-.64-.26-.98c0-.48.15-.9.45-1.24.3-.34.72-.61,1.25-.81-.27-.13-.49-.3-.65-.52s-.24-.5-.24-.87c0-.14.03-.29.08-.44s.13-.3.23-.45c.11-.15.23-.29.39-.43.15-.14.33-.25.53-.36-.48-.27-.85-.63-1.12-1.08-.27-.45-.41-.97-.41-1.57,0-.48.09-.91.27-1.3.18-.39.43-.72.76-1s.71-.49,1.16-.63c.45-.15.94-.22,1.47-.22Zm3.01,10.47c0-.25-.07-.45-.2-.6-.13-.15-.32-.27-.54-.35-.23-.08-.49-.14-.79-.18-.3-.04-.61-.06-.94-.06h-1.01c-.34,0-.67-.04-.98-.13-.36.17-.66.39-.88.64-.23.25-.34.55-.34.9,0,.22.06.43.17.62s.28.36.51.5c.23.14.52.25.86.33.35.08.75.12,1.23.12s.87-.04,1.23-.13.67-.21.92-.37c.25-.16.44-.35.58-.56.13-.22.2-.46.2-.72Zm-3.01-5.29c.34,0,.65-.05.91-.15s.48-.23.66-.41c.18-.17.31-.38.4-.62s.13-.51.13-.8c0-.6-.18-1.08-.54-1.43-.36-.35-.88-.53-1.57-.53s-1.2.18-1.56.53c-.36.36-.54.83-.54,1.43,0,.29.05.56.14.8.09.24.23.45.41.62.18.17.4.31.66.41s.56.15.9.15Z"/>
        <path class="cls-3" d="m469.74,156.5h-.75c-.17,0-.3-.03-.4-.08-.1-.05-.17-.16-.2-.33l-.19-.91c-.25.23-.5.44-.74.62-.24.18-.5.34-.76.46s-.55.22-.85.29c-.3.06-.64.1-1.01.1s-.73-.05-1.05-.16c-.33-.11-.61-.27-.85-.48-.24-.21-.43-.48-.58-.81-.14-.33-.21-.71-.21-1.16,0-.39.1-.76.31-1.12.21-.36.55-.68,1.02-.96.47-.28,1.08-.51,1.84-.68.76-.18,1.68-.27,2.78-.27v-.77c0-.77-.16-1.35-.48-1.74-.32-.39-.8-.59-1.43-.59-.41,0-.76.05-1.04.16-.28.11-.53.23-.73.36-.21.13-.38.25-.53.36s-.3.16-.44.16c-.11,0-.21-.03-.3-.09-.09-.06-.15-.14-.21-.23l-.31-.55c.53-.52,1.11-.91,1.73-1.17.62-.26,1.3-.39,2.05-.39.54,0,1.02.09,1.44.27.42.18.77.43,1.06.76.29.32.5.71.65,1.17.15.46.22.96.22,1.51v6.28Zm-4.41-1.06c.3,0,.57-.03.82-.09s.48-.15.7-.26.43-.25.63-.41c.2-.16.4-.35.59-.55v-2.02c-.78,0-1.45.05-1.99.15s-.99.23-1.33.39c-.34.16-.59.35-.75.58-.16.22-.23.47-.23.74s.04.48.12.67c.08.19.19.34.33.46.14.12.31.21.5.26.19.06.4.08.62.08Z"/>
        <path class="cls-3" d="m472.31,156.5v-9.81h.97c.18,0,.31.04.38.11.07.07.12.19.14.37l.11,1.53c.33-.68.74-1.22,1.23-1.6.49-.38,1.06-.58,1.71-.58.27,0,.51.03.72.09.22.06.42.15.6.26l-.22,1.29c-.04.16-.14.24-.3.24-.09,0-.23-.03-.41-.09s-.44-.09-.77-.09c-.59,0-1.09.17-1.48.52s-.73.86-1,1.52v6.25h-1.7Z"/>
        <path class="cls-3" d="m483.83,146.53c.58,0,1.11.1,1.6.3.49.2.91.48,1.27.85.36.37.63.83.83,1.38.2.54.3,1.17.3,1.86,0,.27-.03.45-.09.54-.06.09-.17.14-.32.14h-6.43c.01.62.09,1.16.25,1.62.15.46.36.84.63,1.15.27.31.58.54.95.69.37.15.78.23,1.24.23.43,0,.79-.05,1.1-.15.31-.1.57-.21.8-.33.22-.12.41-.22.56-.32.15-.1.28-.15.39-.15.14,0,.25.05.32.16l.48.63c-.21.26-.46.48-.75.67-.29.19-.61.35-.94.47s-.68.21-1.04.28c-.36.06-.71.09-1.06.09-.67,0-1.28-.12-1.85-.34-.56-.23-1.05-.57-1.46-1.01-.41-.44-.73-.99-.96-1.64-.23-.65-.34-1.4-.34-2.25,0-.68.1-1.32.31-1.92s.5-1.11.89-1.54c.39-.44.86-.78,1.42-1.03.56-.25,1.19-.37,1.89-.37Zm.04,1.27c-.82,0-1.46.24-1.94.72-.47.48-.76,1.15-.88,2h5.26c0-.4-.05-.77-.16-1.1-.11-.33-.27-.62-.48-.86s-.47-.43-.77-.56c-.3-.13-.65-.2-1.04-.2Z"/>
        <path class="cls-3" d="m497.09,156.5h-.75c-.17,0-.3-.03-.4-.08-.1-.05-.17-.16-.2-.33l-.19-.91c-.25.23-.5.44-.74.62-.24.18-.5.34-.76.46s-.55.22-.85.29c-.3.06-.64.1-1.01.1s-.73-.05-1.05-.16c-.33-.11-.61-.27-.85-.48-.24-.21-.43-.48-.58-.81-.14-.33-.21-.71-.21-1.16,0-.39.1-.76.31-1.12.21-.36.55-.68,1.02-.96.47-.28,1.08-.51,1.84-.68.76-.18,1.68-.27,2.78-.27v-.77c0-.77-.16-1.35-.48-1.74-.32-.39-.8-.59-1.43-.59-.41,0-.76.05-1.04.16-.28.11-.53.23-.73.36-.21.13-.38.25-.53.36s-.3.16-.44.16c-.11,0-.21-.03-.3-.09-.09-.06-.15-.14-.21-.23l-.31-.55c.53-.52,1.11-.91,1.73-1.17.62-.26,1.3-.39,2.05-.39.54,0,1.02.09,1.44.27.42.18.77.43,1.06.76.29.32.5.71.65,1.17.15.46.22.96.22,1.51v6.28Zm-4.41-1.06c.3,0,.57-.03.82-.09s.48-.15.7-.26.43-.25.63-.41c.2-.16.4-.35.59-.55v-2.02c-.78,0-1.45.05-1.99.15s-.99.23-1.33.39c-.34.16-.59.35-.75.58-.16.22-.23.47-.23.74s.04.48.12.67c.08.19.19.34.33.46.14.12.31.21.5.26.19.06.4.08.62.08Z"/>
        <path class="cls-3" d="m319.64,185.33c0-.5.09-.96.28-1.4.19-.44.44-.82.76-1.15s.69-.58,1.12-.77c.43-.19.88-.29,1.37-.29s.95.1,1.38.29.81.45,1.13.77c.32.33.58.71.76,1.15.19.44.28.91.28,1.4s-.09.96-.28,1.4c-.19.44-.44.82-.76,1.14-.32.32-.7.58-1.13.77s-.89.29-1.38.29-.94-.1-1.37-.29c-.43-.19-.8-.45-1.12-.77-.32-.32-.57-.7-.76-1.14-.19-.44-.28-.9-.28-1.4Z"/>
        <path class="cls-3" d="m344.32,179.38c-.06.1-.12.17-.18.22-.06.05-.15.07-.25.07-.11,0-.23-.05-.38-.17-.14-.11-.32-.23-.54-.36-.22-.13-.48-.25-.79-.36-.31-.11-.68-.16-1.12-.16-.41,0-.78.06-1.1.17-.32.11-.58.27-.8.46-.21.19-.37.42-.48.68-.11.26-.16.54-.16.85,0,.39.09.71.28.96s.44.47.74.65c.31.18.66.34,1.05.47.39.13.79.27,1.2.41s.81.3,1.2.48c.39.18.74.4,1.05.67.31.27.56.6.74,1,.19.39.28.88.28,1.45,0,.61-.1,1.18-.31,1.71-.2.53-.5,1-.89,1.39-.39.39-.87.7-1.44.93-.57.23-1.22.34-1.94.34-.88,0-1.69-.16-2.42-.49-.73-.33-1.35-.77-1.87-1.32l.53-.89c.05-.07.11-.13.19-.18.07-.05.15-.07.24-.07.13,0,.29.07.46.22.17.15.39.3.64.48.26.17.57.33.93.48s.81.22,1.34.22c.44,0,.83-.06,1.17-.18.34-.12.63-.3.87-.52s.42-.49.55-.8c.13-.31.19-.66.19-1.04,0-.42-.09-.76-.28-1.03-.19-.27-.43-.49-.74-.67-.3-.18-.65-.33-1.04-.46-.39-.13-.79-.25-1.2-.39-.41-.13-.81-.29-1.2-.46-.39-.17-.74-.4-1.04-.68-.31-.28-.55-.62-.74-1.04-.19-.42-.28-.93-.28-1.54,0-.49.09-.96.28-1.42.19-.46.46-.87.82-1.22.36-.35.8-.64,1.32-.85.52-.21,1.13-.32,1.81-.32.76,0,1.46.12,2.09.37.63.25,1.18.6,1.65,1.07l-.45.89Z"/>
        <path class="cls-3" d="m349.43,178.2c0,.17-.03.33-.1.47-.07.15-.16.27-.27.39s-.24.2-.39.27-.3.1-.47.1-.32-.03-.46-.1c-.14-.06-.27-.15-.38-.27s-.2-.24-.26-.39c-.06-.14-.09-.3-.09-.47s.03-.33.09-.48c.06-.15.15-.28.26-.4s.24-.2.38-.27c.14-.06.3-.1.46-.1s.32.03.47.1.27.15.39.27.2.25.27.4c.07.15.1.31.1.48Zm-.38,3.08v9.81h-1.7v-9.81h1.7Z"/>
        <path class="cls-3" d="m353.93,176.82v14.27h-1.7v-14.27h1.7Z"/>
        <path class="cls-3" d="m360.75,181.12c.58,0,1.11.1,1.6.3.49.2.91.48,1.27.85.36.37.63.83.83,1.38.2.54.3,1.17.3,1.86,0,.27-.03.45-.09.54-.06.09-.17.14-.32.14h-6.43c.01.62.09,1.16.25,1.62.15.46.36.84.63,1.15.27.31.58.54.95.69.37.15.78.23,1.24.23.43,0,.79-.05,1.1-.15.31-.1.57-.21.8-.33.22-.12.41-.22.56-.32.15-.1.28-.15.39-.15.14,0,.25.05.32.16l.48.63c-.21.26-.46.48-.75.67-.29.19-.61.35-.94.47s-.68.21-1.04.28c-.36.06-.71.09-1.06.09-.67,0-1.28-.12-1.85-.34-.56-.23-1.05-.57-1.46-1.01-.41-.44-.73-.99-.96-1.64-.23-.65-.34-1.4-.34-2.25,0-.68.1-1.32.31-1.92s.5-1.11.89-1.54c.39-.44.86-.78,1.42-1.03.56-.25,1.19-.37,1.89-.37Zm.04,1.27c-.82,0-1.46.24-1.94.72-.47.48-.76,1.15-.88,2h5.26c0-.4-.05-.77-.16-1.1-.11-.33-.27-.62-.48-.86s-.47-.43-.77-.56c-.3-.13-.65-.2-1.04-.2Z"/>
        <path class="cls-3" d="m366.92,191.09v-9.81h1.01c.24,0,.39.12.46.36l.13,1.07c.42-.47.89-.85,1.41-1.14.52-.29,1.12-.44,1.8-.44.53,0,.99.09,1.4.27.4.18.74.43,1.01.76.27.33.48.72.62,1.18.14.46.21.97.21,1.52v6.25h-1.7v-6.25c0-.74-.17-1.32-.5-1.73s-.84-.62-1.53-.62c-.5,0-.97.12-1.41.37-.44.25-.84.58-1.21,1v7.22h-1.7Z"/>
        <path class="cls-3" d="m380.46,191.24c-.76,0-1.35-.22-1.76-.65s-.62-1.06-.62-1.87v-6h-1.16c-.1,0-.19-.03-.26-.09-.07-.06-.1-.16-.1-.29v-.69l1.58-.2.39-3.03c.01-.1.05-.18.12-.24.07-.06.16-.09.27-.09h.86v3.38h2.77v1.25h-2.77v5.89c0,.41.1.72.3.92.2.2.45.3.76.3.18,0,.33-.02.46-.07.13-.05.24-.1.34-.16.1-.06.18-.11.24-.16.07-.05.13-.07.18-.07.09,0,.17.05.24.16l.5.82c-.29.28-.65.5-1.06.65s-.84.24-1.28.24Z"/>
        <path class="cls-3" d="m388.71,191.09v-8.34l-1.07-.13c-.13-.03-.24-.08-.33-.15-.09-.07-.13-.17-.13-.3v-.71h1.53v-.95c0-.56.08-1.06.23-1.5.16-.44.38-.8.67-1.1.29-.3.64-.53,1.04-.68.41-.15.86-.23,1.37-.23.43,0,.83.07,1.2.19l-.04.86c0,.13-.06.21-.16.23-.1.03-.25.04-.43.04h-.29c-.29,0-.56.04-.8.12s-.44.2-.62.38c-.17.17-.3.4-.4.69-.09.28-.14.64-.14,1.06v.9h2.79v1.25h-2.74v8.37h-1.71Z"/>
        <path class="cls-3" d="m394.75,191.09v-9.81h.97c.18,0,.31.04.38.11.07.07.12.19.14.37l.11,1.53c.33-.68.74-1.22,1.23-1.6.49-.38,1.06-.58,1.71-.58.27,0,.51.03.72.09.22.06.42.15.6.26l-.22,1.29c-.04.16-.14.24-.3.24-.09,0-.23-.03-.41-.09s-.44-.09-.77-.09c-.59,0-1.09.17-1.48.52s-.73.86-1,1.52v6.25h-1.7Z"/>
        <path class="cls-3" d="m406.35,181.12c.71,0,1.34.12,1.91.36.57.24,1.05.58,1.45,1.02.4.44.7.97.92,1.59.21.62.32,1.32.32,2.09s-.11,1.47-.32,2.09c-.21.62-.52,1.15-.92,1.59-.4.44-.88.78-1.45,1.01-.57.24-1.21.35-1.91.35s-1.34-.12-1.91-.35-1.05-.57-1.45-1.01c-.4-.44-.71-.97-.93-1.59-.22-.62-.32-1.32-.32-2.09s.11-1.46.32-2.09c.22-.62.52-1.15.93-1.59.4-.44.88-.78,1.45-1.02.57-.24,1.21-.36,1.91-.36Zm0,8.75c.95,0,1.67-.32,2.14-.97.47-.65.71-1.55.71-2.72s-.24-2.08-.71-2.73c-.47-.65-1.18-.98-2.14-.98-.48,0-.9.08-1.26.25s-.65.41-.89.73-.42.71-.53,1.17c-.12.46-.18.98-.18,1.56s.06,1.1.18,1.56c.12.46.3.84.53,1.16.24.31.54.55.89.72s.78.25,1.26.25Z"/>
        <path class="cls-3" d="m413.05,191.09v-9.81h1.01c.24,0,.39.12.46.36l.12,1.01c.36-.45.75-.81,1.2-1.09.44-.28.96-.43,1.54-.43.66,0,1.18.18,1.59.55.4.37.69.87.87,1.49.13-.36.31-.66.53-.92.22-.26.47-.47.74-.64s.56-.29.87-.37c.31-.08.62-.12.94-.12.51,0,.96.08,1.36.25.4.17.73.41,1.01.72.28.32.49.71.63,1.17s.22.99.22,1.58v6.25h-1.7v-6.25c0-.77-.17-1.35-.5-1.75-.33-.4-.81-.6-1.44-.6-.28,0-.54.05-.8.15-.25.1-.47.25-.66.44-.19.19-.34.44-.45.73s-.17.63-.17,1.02v6.25h-1.7v-6.25c0-.79-.16-1.38-.47-1.76-.31-.39-.77-.58-1.36-.58-.42,0-.81.12-1.17.34-.36.23-.69.54-.99.93v7.31h-1.7Z"/>
        <path class="cls-3" d="m436.73,177.05c.58,0,1.12.09,1.62.26.5.17.94.43,1.3.76.37.33.65.74.86,1.22s.31,1.02.31,1.63c0,.52-.08.99-.23,1.43-.15.44-.36.86-.62,1.26s-.56.79-.9,1.17-.7.76-1.08,1.16l-3.6,3.74c.25-.07.51-.13.77-.17.26-.04.51-.06.75-.06h4.58c.18,0,.33.05.44.17.11.11.16.25.16.43v1.05h-9.12v-.59c0-.12.02-.25.07-.38.05-.13.12-.25.23-.36l4.38-4.46c.36-.38.69-.73.99-1.08s.55-.69.77-1.04.38-.7.49-1.06.17-.74.17-1.15-.06-.76-.19-1.07c-.13-.31-.3-.56-.53-.76s-.48-.35-.78-.45c-.3-.1-.62-.15-.96-.15s-.66.05-.95.16c-.29.1-.55.25-.78.43-.23.18-.42.4-.57.65-.16.25-.27.53-.33.83-.05.19-.13.32-.23.41s-.24.13-.4.13c-.03,0-.07,0-.1,0-.04,0-.07,0-.12-.01l-.89-.15c.09-.63.26-1.19.51-1.68.25-.49.58-.9.97-1.23.39-.33.84-.58,1.34-.75.5-.17,1.05-.26,1.64-.26Z"/>
        <path class="cls-3" d="m447.79,177.05c.58,0,1.12.09,1.62.26.5.17.94.43,1.3.76.37.33.65.74.86,1.22s.31,1.02.31,1.63c0,.52-.08.99-.23,1.43-.15.44-.36.86-.62,1.26s-.56.79-.9,1.17-.7.76-1.08,1.16l-3.6,3.74c.25-.07.51-.13.77-.17.26-.04.51-.06.75-.06h4.58c.18,0,.33.05.44.17.11.11.16.25.16.43v1.05h-9.12v-.59c0-.12.02-.25.07-.38.05-.13.12-.25.23-.36l4.38-4.46c.36-.38.69-.73.99-1.08s.55-.69.77-1.04.38-.7.49-1.06.17-.74.17-1.15-.06-.76-.19-1.07c-.13-.31-.3-.56-.53-.76s-.48-.35-.78-.45c-.3-.1-.62-.15-.96-.15s-.66.05-.95.16c-.29.1-.55.25-.78.43-.23.18-.42.4-.57.65-.16.25-.27.53-.33.83-.05.19-.13.32-.23.41s-.24.13-.4.13c-.03,0-.07,0-.1,0-.04,0-.07,0-.12-.01l-.89-.15c.09-.63.26-1.19.51-1.68.25-.49.58-.9.97-1.23.39-.33.84-.58,1.34-.75.5-.17,1.05-.26,1.64-.26Z"/>
        <path class="cls-3" d="m454.08,184.55h4.71v1.46h-4.71v-1.46Z"/>
        <path class="cls-3" d="m470.23,184.15c0,1.21-.13,2.26-.39,3.15-.26.89-.61,1.62-1.05,2.2-.45.58-.97,1.01-1.58,1.3-.61.28-1.26.43-1.95.43s-1.35-.14-1.95-.43c-.6-.28-1.12-.72-1.57-1.3-.45-.58-.79-1.32-1.05-2.2-.25-.89-.38-1.94-.38-3.15s.13-2.27.38-3.16c.25-.89.6-1.63,1.05-2.21.45-.58.97-1.02,1.57-1.3.6-.28,1.25-.43,1.95-.43s1.34.14,1.95.43c.61.28,1.13.72,1.58,1.3.44.58.8,1.32,1.05,2.21.26.89.39,1.94.39,3.16Zm-1.76,0c0-1.06-.09-1.95-.26-2.67s-.41-1.3-.71-1.74-.64-.75-1.03-.94-.79-.29-1.21-.29-.82.09-1.21.29c-.39.19-.73.5-1.02.94-.29.44-.53,1.02-.7,1.74-.18.72-.26,1.61-.26,2.67s.09,1.95.26,2.66c.17.72.41,1.29.7,1.73.29.44.63.75,1.02.94.39.19.79.29,1.21.29s.82-.09,1.21-.29.73-.51,1.03-.94c.3-.44.53-1.02.71-1.73.17-.72.26-1.6.26-2.66Z"/>
        <path class="cls-3" d="m476.04,185.39c-.52,0-1-.09-1.46-.26-.46-.17-.87-.43-1.22-.77-.35-.34-.63-.76-.83-1.25-.21-.49-.31-1.06-.31-1.7s.11-1.17.33-1.71c.22-.53.53-.99.93-1.38.4-.39.88-.7,1.43-.93.55-.23,1.16-.34,1.82-.34s1.25.11,1.78.33c.53.22.99.53,1.37.92.38.39.67.87.88,1.41s.31,1.16.31,1.82c0,.4-.04.78-.11,1.14s-.18.71-.32,1.05-.31.68-.5,1.02-.42.69-.66,1.05l-3.33,4.88c-.08.12-.2.22-.35.3-.15.07-.33.11-.52.11h-1.56l4.16-5.53c.14-.19.27-.36.39-.53.12-.17.24-.34.34-.5-.35.28-.74.5-1.18.65s-.9.22-1.39.22Zm3.41-4.06c0-.43-.07-.82-.21-1.18-.14-.35-.33-.65-.57-.9-.24-.25-.53-.43-.86-.57-.33-.13-.7-.2-1.1-.2s-.8.07-1.15.21-.64.33-.89.58-.43.54-.57.88c-.13.34-.2.72-.2,1.12,0,.44.06.83.19,1.18s.3.64.53.88c.23.24.52.42.85.54.33.12.71.18,1.12.18.46,0,.86-.08,1.22-.23.35-.15.65-.35.89-.61.24-.25.43-.54.55-.87.13-.33.19-.67.19-1.03Z"/>
      </g>
    </g>
  </g>
</svg>