<?xml version="1.0" encoding="UTF-8"?>
<svg id="Layer_2" data-name="Layer 2" xmlns="http://www.w3.org/2000/svg" viewBox="0 0 725 307.29">
  <defs>
    <style>
      .cls-1 {
        font-size: 74.48px;
      }

      .cls-1, .cls-2 {
        font-family: KronaOne-Regular, 'Krona One';
      }

      .cls-1, .cls-2, .cls-3, .cls-4, .cls-5 {
        fill: #fff0f5;
      }

      .cls-6 {
        letter-spacing: -.03em;
      }

      .cls-2, .cls-4 {
        font-size: 23.54px;
      }

      .cls-7 {
        letter-spacing: -.02em;
      }

      .cls-8 {
        fill: none;
        stroke: #fff0f5;
        stroke-miterlimit: 10;
        stroke-width: 2px;
      }

      .cls-3 {
        font-size: 27.7px;
      }

      .cls-3, .cls-4 {
        font-family: Lato-Regular, Lato;
      }

      .cls-9 {
        fill: #333838;
      }

      .cls-9, .cls-10, .cls-5 {
        stroke-width: 0px;
      }

      .cls-10 {
        fill: #fff;
      }
    </style>
  </defs>
  <g id="Layer_1-2" data-name="Layer 1">
    <g>
      <ellipse class="cls-10" cx="708.2" cy="24.64" rx="16.8" ry="17.07"/>
      <ellipse class="cls-10" cx="708.2" cy="67.64" rx="16.8" ry="17.07"/>
      <ellipse class="cls-10" cx="708.2" cy="110.64" rx="16.8" ry="17.07"/>
      <ellipse class="cls-10" cx="708.2" cy="153.65" rx="16.8" ry="17.07"/>
      <ellipse class="cls-10" cx="708.2" cy="196.65" rx="16.8" ry="17.07"/>
      <ellipse class="cls-10" cx="708.2" cy="239.65" rx="16.8" ry="17.07"/>
      <ellipse class="cls-10" cx="708.2" cy="282.65" rx="16.8" ry="17.07"/>
      <path class="cls-9" d="m725,299.73c-9.28,0-16.8-7.64-16.8-17.07s7.52-17.07,16.8-17.07h0v-8.86h0c-9.28,0-16.8-7.64-16.8-17.07s7.52-17.07,16.8-17.07h0v-8.86h0c-9.28,0-16.8-7.64-16.8-17.07s7.52-17.07,16.8-17.07h0v-8.86h0c-9.28,0-16.8-7.64-16.8-17.07s7.52-17.07,16.8-17.07h0v-8.86h0c-9.28,0-16.8-7.64-16.8-17.07s7.52-17.07,16.8-17.07h0v-8.86h0c-9.28,0-16.8-7.64-16.8-17.07s7.52-17.07,16.8-17.07h0v-8.86h0c-9.28,0-16.8-7.64-16.8-17.07s7.52-17.07,16.8-17.07h0V0H0v7.57c9.28,0,16.8,7.64,16.8,17.07S9.28,41.71,0,41.71v8.86c9.28,0,16.8,7.64,16.8,17.07s-7.52,17.07-16.8,17.07v8.86c9.28,0,16.8,7.64,16.8,17.07s-7.52,17.07-16.8,17.07v8.86c9.28,0,16.8,7.64,16.8,17.07s-7.52,17.07-16.8,17.07v8.86c9.28,0,16.8,7.64,16.8,17.07s-7.52,17.07-16.8,17.07v8.86c9.28,0,16.8,7.64,16.8,17.07s-7.52,17.07-16.8,17.07v8.86c9.28,0,16.8,7.64,16.8,17.07s-7.52,17.07-16.8,17.07v7.57h725v-7.57h0Z"/>
      <text class="cls-1" transform="translate(76.2 255.69) scale(.98 1)"><tspan x="0" y="0">VIP</tspan></text>
      <text class="cls-2" transform="translate(84.14 50.7) scale(.98 1)"><tspan x="0" y="0">FOO</tspan></text>
      <text class="cls-2" transform="translate(117.94 69.19) scale(.98 1)"><tspan x="0" y="0">FEST</tspan></text>
      <text class="cls-4" transform="translate(587.47 46.84) scale(.98 1)"><tspan x="0" y="0">Price</tspan><tspan x="-55.72" y="28.25">1299 DKK</tspan></text>
      <text class="cls-4" transform="translate(322.28 46.68) scale(.98 1)"><tspan x="0" y="0">Mond</tspan><tspan class="cls-7" x="61" y="0">a</tspan><tspan x="72.56" y="0">y</tspan><tspan x="12.4" y="28.25">July 1</tspan></text>
      <line class="cls-8" x1="58.56" y1="94.14" x2="666.44" y2="94.14"/>
      <text class="cls-3" transform="translate(83 180.83) scale(.98 1)"><tspan x="0" y="0">Tic</tspan><tspan class="cls-6" x="36.37" y="0">k</tspan><tspan x="50.05" y="0">et type</tspan></text>
      <g>
        <path class="cls-5" d="m493.23,179.98c0-.5.09-.97.28-1.41.19-.44.44-.82.76-1.15.32-.33.69-.58,1.12-.78.43-.19.88-.29,1.37-.29s.95.1,1.38.29.81.45,1.13.78c.32.33.58.71.76,1.15s.28.91.28,1.41-.09.96-.28,1.4c-.19.44-.44.82-.76,1.14-.32.32-.7.58-1.13.77-.43.19-.89.29-1.38.29s-.94-.1-1.37-.29c-.43-.19-.8-.45-1.12-.77s-.57-.7-.76-1.14c-.19-.44-.28-.9-.28-1.4Z"/>
        <path class="cls-5" d="m522.15,185.75h-1.43c-.17,0-.3-.04-.4-.13s-.18-.19-.23-.32l-1.28-3.35h-6.13l-1.28,3.35c-.04.12-.12.22-.23.31-.11.09-.24.14-.4.14h-1.43l5.46-13.89h1.88l5.46,13.89Zm-8.96-5.16h5.1l-2.15-5.65c-.14-.35-.28-.79-.41-1.31-.07.27-.14.51-.21.73-.07.22-.13.42-.2.59l-2.15,5.64Z"/>
        <path class="cls-5" d="m530.2,177.67c-.05.07-.1.13-.15.17-.05.04-.12.06-.22.06s-.2-.04-.31-.12-.25-.17-.42-.27c-.17-.1-.38-.19-.62-.27-.25-.08-.54-.12-.9-.12-.47,0-.89.09-1.25.26s-.67.42-.91.74-.43.71-.55,1.17c-.12.46-.19.97-.19,1.54s.07,1.12.2,1.58c.13.46.32.85.56,1.16.24.31.54.55.88.72.35.16.74.25,1.17.25s.75-.05,1.02-.15c.27-.1.49-.21.67-.33.18-.12.32-.23.44-.33s.23-.15.34-.15c.15,0,.25.06.32.16l.48.63c-.42.52-.94.91-1.57,1.15-.63.24-1.29.36-1.99.36-.6,0-1.17-.11-1.68-.34-.52-.23-.97-.55-1.35-.98-.38-.43-.68-.96-.9-1.58-.22-.63-.33-1.34-.33-2.14,0-.73.1-1.41.3-2.03.2-.62.49-1.15.88-1.6s.86-.8,1.43-1.05c.57-.25,1.21-.38,1.95-.38.67,0,1.27.11,1.79.33.52.22.98.54,1.38.95l-.45.62Z"/>
        <path class="cls-5" d="m539.1,177.67c-.05.07-.1.13-.15.17-.05.04-.12.06-.22.06s-.2-.04-.31-.12-.25-.17-.42-.27c-.17-.1-.38-.19-.62-.27-.25-.08-.54-.12-.9-.12-.47,0-.89.09-1.25.26s-.67.42-.91.74-.43.71-.55,1.17c-.12.46-.19.97-.19,1.54s.07,1.12.2,1.58c.13.46.32.85.56,1.16.24.31.54.55.88.72.35.16.74.25,1.17.25s.75-.05,1.02-.15c.27-.1.49-.21.67-.33.18-.12.32-.23.44-.33s.23-.15.34-.15c.15,0,.25.06.32.16l.48.63c-.42.52-.94.91-1.57,1.15-.63.24-1.29.36-1.99.36-.6,0-1.17-.11-1.68-.34-.52-.23-.97-.55-1.35-.98-.38-.43-.68-.96-.9-1.58-.22-.63-.33-1.34-.33-2.14,0-.73.1-1.41.3-2.03.2-.62.49-1.15.88-1.6s.86-.8,1.43-1.05c.57-.25,1.21-.38,1.95-.38.67,0,1.27.11,1.79.33.52.22.98.54,1.38.95l-.45.62Z"/>
        <path class="cls-5" d="m545.25,175.77c.58,0,1.11.1,1.6.3s.91.48,1.27.85.63.83.83,1.38c.2.55.3,1.17.3,1.87,0,.27-.03.45-.09.54-.06.09-.17.14-.32.14h-6.43c.01.62.09,1.16.25,1.62.15.46.36.84.63,1.15.27.31.58.54.95.69.37.15.78.23,1.24.23.43,0,.79-.05,1.1-.15.31-.1.57-.21.8-.32.22-.12.41-.22.56-.32s.28-.15.39-.15c.14,0,.25.06.32.16l.48.63c-.21.26-.46.48-.75.67-.29.19-.61.35-.94.47-.33.12-.68.21-1.04.28-.36.06-.71.09-1.06.09-.67,0-1.28-.11-1.85-.34-.56-.23-1.05-.57-1.46-1.01-.41-.44-.73-.99-.96-1.64-.23-.65-.34-1.4-.34-2.25,0-.68.1-1.32.31-1.92.21-.59.5-1.11.89-1.55s.86-.78,1.42-1.03c.56-.25,1.19-.37,1.89-.37Zm.04,1.27c-.82,0-1.46.24-1.94.72s-.76,1.15-.88,2h5.26c0-.4-.05-.77-.16-1.1-.11-.33-.27-.62-.48-.86-.21-.24-.47-.43-.77-.56s-.65-.2-1.04-.2Z"/>
        <path class="cls-5" d="m556.95,177.55c-.08.14-.19.21-.35.21-.09,0-.2-.04-.32-.11-.12-.07-.27-.15-.44-.24-.17-.09-.38-.17-.62-.24-.24-.07-.53-.11-.86-.11-.29,0-.54.04-.77.11-.23.07-.42.18-.59.31-.16.13-.29.28-.37.45-.09.17-.13.36-.13.56,0,.25.07.46.21.63.14.17.33.31.57.44.23.12.5.23.8.32s.61.19.92.3c.31.11.62.22.92.35s.57.29.8.48.42.43.57.71c.14.28.21.62.21,1.01,0,.45-.08.87-.24,1.26-.16.38-.39.72-.71,1-.31.28-.69.5-1.14.66-.45.16-.97.24-1.56.24-.67,0-1.29-.11-1.83-.33-.55-.22-1.01-.51-1.39-.86l.4-.66c.05-.08.11-.15.18-.19.07-.05.16-.07.28-.07s.23.04.36.14c.13.09.28.19.46.3.18.11.4.21.66.3.26.09.58.14.97.14.33,0,.62-.04.87-.13.25-.09.46-.21.62-.35.17-.15.29-.32.37-.51s.12-.4.12-.62c0-.27-.07-.5-.21-.67-.14-.18-.33-.33-.57-.46s-.5-.24-.81-.33-.61-.19-.92-.3c-.32-.1-.62-.22-.93-.35-.3-.13-.57-.3-.81-.5-.24-.2-.42-.45-.57-.74-.14-.29-.21-.65-.21-1.07,0-.37.08-.73.23-1.08.15-.35.38-.65.67-.91.29-.26.65-.47,1.08-.62.43-.16.91-.23,1.46-.23.64,0,1.21.1,1.71.31.51.2.94.48,1.31.84l-.38.63Z"/>
        <path class="cls-5" d="m565.23,177.55c-.08.14-.19.21-.35.21-.09,0-.2-.04-.32-.11-.12-.07-.27-.15-.44-.24-.17-.09-.38-.17-.62-.24-.24-.07-.53-.11-.86-.11-.29,0-.54.04-.77.11-.23.07-.42.18-.59.31-.16.13-.29.28-.37.45-.09.17-.13.36-.13.56,0,.25.07.46.21.63.14.17.33.31.57.44.23.12.5.23.8.32s.61.19.92.3c.31.11.62.22.92.35s.57.29.8.48.42.43.57.71c.14.28.21.62.21,1.01,0,.45-.08.87-.24,1.26-.16.38-.39.72-.71,1-.31.28-.69.5-1.14.66-.45.16-.97.24-1.56.24-.67,0-1.29-.11-1.83-.33-.55-.22-1.01-.51-1.39-.86l.4-.66c.05-.08.11-.15.18-.19.07-.05.16-.07.28-.07s.23.04.36.14c.13.09.28.19.46.3.18.11.4.21.66.3.26.09.58.14.97.14.33,0,.62-.04.87-.13.25-.09.46-.21.62-.35.17-.15.29-.32.37-.51s.12-.4.12-.62c0-.27-.07-.5-.21-.67-.14-.18-.33-.33-.57-.46s-.5-.24-.81-.33-.61-.19-.92-.3c-.32-.1-.62-.22-.93-.35-.3-.13-.57-.3-.81-.5-.24-.2-.42-.45-.57-.74-.14-.29-.21-.65-.21-1.07,0-.37.08-.73.23-1.08.15-.35.38-.65.67-.91.29-.26.65-.47,1.08-.62.43-.16.91-.23,1.46-.23.64,0,1.21.1,1.71.31.51.2.94.48,1.31.84l-.38.63Z"/>
        <path class="cls-5" d="m574.58,185.9c-.76,0-1.35-.22-1.76-.65-.41-.43-.62-1.06-.62-1.87v-6.01h-1.16c-.1,0-.19-.03-.26-.09-.07-.06-.1-.16-.1-.29v-.69l1.58-.2.39-3.03c.01-.1.05-.18.12-.24.07-.06.16-.09.27-.09h.86v3.38h2.77v1.25h-2.77v5.89c0,.41.1.72.3.92.2.2.45.3.76.3.18,0,.33-.02.46-.07.13-.05.24-.1.34-.16.1-.06.18-.11.24-.16.07-.05.13-.07.18-.07.09,0,.17.06.24.17l.5.82c-.29.28-.65.5-1.06.65s-.84.24-1.28.24Z"/>
        <path class="cls-5" d="m582.68,175.77c.71,0,1.34.12,1.91.36.57.24,1.05.58,1.45,1.02.4.44.7.97.92,1.59.21.62.32,1.32.32,2.09s-.11,1.47-.32,2.09c-.21.62-.52,1.15-.92,1.59s-.88.78-1.45,1.01c-.57.24-1.21.35-1.91.35s-1.34-.12-1.91-.35-1.05-.57-1.45-1.01c-.4-.44-.71-.97-.93-1.59-.22-.62-.32-1.32-.32-2.09s.11-1.46.32-2.09c.22-.62.52-1.15.93-1.59.4-.44.88-.78,1.45-1.02s1.21-.36,1.91-.36Zm0,8.76c.95,0,1.67-.32,2.14-.97s.71-1.56.71-2.72-.24-2.08-.71-2.73-1.18-.98-2.14-.98c-.48,0-.9.08-1.26.25s-.65.41-.89.73c-.24.32-.42.71-.53,1.17-.12.46-.18.98-.18,1.57s.06,1.1.18,1.56c.12.46.3.84.53,1.16s.54.55.89.72c.36.17.78.25,1.26.25Z"/>
        <path class="cls-5" d="m591.74,171.86h1.48c.17,0,.3.04.4.13s.18.19.23.32l3.86,9.8c.09.22.17.46.24.72.07.26.14.53.21.8.06-.28.12-.55.19-.8.07-.26.14-.5.23-.72l3.84-9.8c.04-.11.12-.21.23-.31.11-.09.24-.14.4-.14h1.49l-5.57,13.89h-1.67l-5.57-13.89Z"/>
        <path class="cls-5" d="m608.49,185.75h-1.85v-13.89h1.85v13.89Z"/>
        <path class="cls-5" d="m614.18,180.55v5.2h-1.84v-13.89h4.03c.86,0,1.62.1,2.26.31.64.2,1.17.49,1.59.87s.73.83.94,1.36c.21.53.31,1.12.31,1.77s-.11,1.24-.33,1.77c-.22.54-.55,1-.98,1.39-.43.39-.96.69-1.6.91-.64.22-1.36.32-2.18.32h-2.19Zm0-1.49h2.19c.53,0,.99-.07,1.4-.21.4-.14.74-.34,1.02-.6s.48-.56.62-.92c.14-.36.21-.75.21-1.17,0-.89-.27-1.58-.81-2.07-.54-.5-1.35-.75-2.44-.75h-2.19v5.72Z"/>
        <path class="cls-5" d="m634.32,185.75h-.75c-.17,0-.3-.03-.4-.08-.1-.05-.17-.16-.2-.33l-.19-.91c-.25.23-.5.44-.74.63-.24.18-.5.34-.76.46-.27.13-.55.22-.85.29s-.64.1-1.01.1-.73-.05-1.05-.16c-.33-.11-.61-.27-.85-.48-.24-.21-.43-.48-.58-.81-.14-.33-.21-.71-.21-1.16,0-.39.1-.76.31-1.12s.55-.68,1.02-.96,1.08-.51,1.84-.69c.76-.18,1.68-.27,2.78-.27v-.77c0-.77-.16-1.35-.48-1.74s-.8-.59-1.43-.59c-.41,0-.76.05-1.04.16-.28.11-.53.23-.73.36-.21.13-.38.25-.53.36s-.3.16-.44.16c-.11,0-.21-.03-.3-.09s-.15-.14-.21-.23l-.31-.55c.53-.52,1.11-.91,1.73-1.17.62-.26,1.3-.39,2.05-.39.54,0,1.02.09,1.44.27.42.18.77.43,1.06.76s.5.71.65,1.17c.15.46.22.96.22,1.51v6.28Zm-4.41-1.06c.3,0,.57-.03.82-.09.25-.06.48-.15.7-.26.22-.11.43-.25.63-.41.2-.16.4-.35.59-.55v-2.03c-.78,0-1.45.05-1.99.15-.55.1-.99.23-1.33.4-.34.16-.59.35-.75.58-.16.22-.23.47-.23.74s.04.48.12.67c.08.19.19.34.33.46.14.12.31.21.5.26.19.06.4.08.62.08Z"/>
        <path class="cls-5" d="m636.89,185.75v-9.82h.97c.18,0,.31.04.38.11.07.07.12.19.14.37l.11,1.53c.33-.68.74-1.22,1.23-1.6.49-.38,1.06-.58,1.71-.58.27,0,.51.03.72.09.22.06.42.15.6.26l-.22,1.29c-.04.16-.14.24-.3.24-.09,0-.23-.03-.41-.09-.18-.06-.44-.09-.77-.09-.59,0-1.09.17-1.48.52s-.73.86-1,1.52v6.25h-1.7Z"/>
        <path class="cls-5" d="m648.4,175.77c.58,0,1.11.1,1.6.3s.91.48,1.27.85.63.83.83,1.38c.2.55.3,1.17.3,1.87,0,.27-.03.45-.09.54-.06.09-.17.14-.32.14h-6.43c.01.62.09,1.16.25,1.62.15.46.36.84.63,1.15.27.31.58.54.95.69.37.15.78.23,1.24.23.43,0,.79-.05,1.1-.15.31-.1.57-.21.8-.32.22-.12.41-.22.56-.32s.28-.15.39-.15c.14,0,.25.06.32.16l.48.63c-.21.26-.46.48-.75.67-.29.19-.61.35-.94.47-.33.12-.68.21-1.04.28-.36.06-.71.09-1.06.09-.67,0-1.28-.11-1.85-.34-.56-.23-1.05-.57-1.46-1.01-.41-.44-.73-.99-.96-1.64-.23-.65-.34-1.4-.34-2.25,0-.68.1-1.32.31-1.92.21-.59.5-1.11.89-1.55s.86-.78,1.42-1.03c.56-.25,1.19-.37,1.89-.37Zm.04,1.27c-.82,0-1.46.24-1.94.72s-.76,1.15-.88,2h5.26c0-.4-.05-.77-.16-1.1-.11-.33-.27-.62-.48-.86-.21-.24-.47-.43-.77-.56s-.65-.2-1.04-.2Z"/>
        <path class="cls-5" d="m661.67,185.75h-.75c-.17,0-.3-.03-.4-.08-.1-.05-.17-.16-.2-.33l-.19-.91c-.25.23-.5.44-.74.63-.24.18-.5.34-.76.46-.27.13-.55.22-.85.29s-.64.1-1.01.1-.73-.05-1.05-.16c-.33-.11-.61-.27-.85-.48-.24-.21-.43-.48-.58-.81-.14-.33-.21-.71-.21-1.16,0-.39.1-.76.31-1.12s.55-.68,1.02-.96,1.08-.51,1.84-.69c.76-.18,1.68-.27,2.78-.27v-.77c0-.77-.16-1.35-.48-1.74s-.8-.59-1.43-.59c-.41,0-.76.05-1.04.16-.28.11-.53.23-.73.36-.21.13-.38.25-.53.36s-.3.16-.44.16c-.11,0-.21-.03-.3-.09s-.15-.14-.21-.23l-.31-.55c.53-.52,1.11-.91,1.73-1.17.62-.26,1.3-.39,2.05-.39.54,0,1.02.09,1.44.27.42.18.77.43,1.06.76s.5.71.65,1.17c.15.46.22.96.22,1.51v6.28Zm-4.41-1.06c.3,0,.57-.03.82-.09.25-.06.48-.15.7-.26.22-.11.43-.25.63-.41.2-.16.4-.35.59-.55v-2.03c-.78,0-1.45.05-1.99.15-.55.1-.99.23-1.33.4-.34.16-.59.35-.75.58-.16.22-.23.47-.23.74s.04.48.12.67c.08.19.19.34.33.46.14.12.31.21.5.26.19.06.4.08.62.08Z"/>
        <path class="cls-5" d="m493.23,214.6c0-.5.09-.97.28-1.41.19-.44.44-.82.76-1.15.32-.33.69-.58,1.12-.78.43-.19.88-.29,1.37-.29s.95.1,1.38.29.81.45,1.13.78c.32.33.58.71.76,1.15s.28.91.28,1.41-.09.96-.28,1.4c-.19.44-.44.82-.76,1.14-.32.32-.7.58-1.13.77-.43.19-.89.29-1.38.29s-.94-.1-1.37-.29c-.43-.19-.8-.45-1.12-.77s-.57-.7-.76-1.14c-.19-.44-.28-.9-.28-1.4Z"/>
        <path class="cls-5" d="m509.32,206.48h1.48c.17,0,.3.04.4.13s.18.19.23.32l3.86,9.8c.09.22.17.46.24.72.07.26.14.53.21.8.06-.28.12-.55.19-.8.07-.26.14-.5.23-.72l3.84-9.8c.04-.11.12-.21.23-.31.11-.09.24-.14.4-.14h1.49l-5.57,13.89h-1.67l-5.57-13.89Z"/>
        <path class="cls-5" d="m526.07,220.37h-1.85v-13.89h1.85v13.89Z"/>
        <path class="cls-5" d="m531.76,215.17v5.2h-1.84v-13.89h4.03c.86,0,1.62.1,2.26.31.64.2,1.17.49,1.59.87s.73.83.94,1.36c.21.53.31,1.12.31,1.77s-.11,1.24-.33,1.77c-.22.54-.55,1-.98,1.39-.43.39-.96.69-1.6.91-.64.22-1.36.32-2.18.32h-2.19Zm0-1.49h2.19c.53,0,.99-.07,1.4-.21.4-.14.74-.34,1.02-.6s.48-.56.62-.92c.14-.36.21-.75.21-1.17,0-.89-.27-1.58-.81-2.07-.54-.5-1.35-.75-2.44-.75h-2.19v5.72Z"/>
        <path class="cls-5" d="m551.39,212.3c-.05.07-.1.13-.15.17-.05.04-.12.06-.22.06s-.2-.04-.31-.12-.25-.17-.42-.27c-.17-.1-.38-.19-.62-.27-.25-.08-.54-.12-.9-.12-.47,0-.89.09-1.25.26s-.67.42-.91.74-.43.71-.55,1.17c-.12.46-.19.97-.19,1.54s.07,1.12.2,1.58c.13.46.32.85.56,1.16.24.31.54.55.88.72.35.16.74.25,1.17.25s.75-.05,1.02-.15c.27-.1.49-.21.67-.33.18-.12.32-.23.44-.33s.23-.15.34-.15c.15,0,.25.06.32.16l.48.63c-.42.52-.94.91-1.57,1.15-.63.24-1.29.36-1.99.36-.6,0-1.17-.11-1.68-.34-.52-.23-.97-.55-1.35-.98-.38-.43-.68-.96-.9-1.58-.22-.63-.33-1.34-.33-2.14,0-.73.1-1.41.3-2.03.2-.62.49-1.15.88-1.6s.86-.8,1.43-1.05c.57-.25,1.21-.38,1.95-.38.67,0,1.27.11,1.79.33.52.22.98.54,1.38.95l-.45.62Z"/>
        <path class="cls-5" d="m560.8,220.37h-.75c-.17,0-.3-.03-.4-.08-.1-.05-.17-.16-.2-.33l-.19-.91c-.25.23-.5.44-.74.63-.24.18-.5.34-.76.46-.27.13-.55.22-.85.29s-.64.1-1.01.1-.73-.05-1.05-.16c-.33-.11-.61-.27-.85-.48-.24-.21-.43-.48-.58-.81-.14-.33-.21-.71-.21-1.16,0-.39.1-.76.31-1.12s.55-.68,1.02-.96,1.08-.51,1.84-.69c.76-.18,1.68-.27,2.78-.27v-.77c0-.77-.16-1.35-.48-1.74s-.8-.59-1.43-.59c-.41,0-.76.05-1.04.16-.28.11-.53.23-.73.36-.21.13-.38.25-.53.36s-.3.16-.44.16c-.11,0-.21-.03-.3-.09s-.15-.14-.21-.23l-.31-.55c.53-.52,1.11-.91,1.73-1.17.62-.26,1.3-.39,2.05-.39.54,0,1.02.09,1.44.27.42.18.77.43,1.06.76s.5.71.65,1.17c.15.46.22.96.22,1.51v6.28Zm-4.41-1.06c.3,0,.57-.03.82-.09.25-.06.48-.15.7-.26.22-.11.43-.25.63-.41.2-.16.4-.35.59-.55v-2.03c-.78,0-1.45.05-1.99.15-.55.1-.99.23-1.33.4-.34.16-.59.35-.75.58-.16.22-.23.47-.23.74s.04.48.12.67c.08.19.19.34.33.46.14.12.31.21.5.26.19.06.4.08.62.08Z"/>
        <path class="cls-5" d="m563.38,220.37v-9.82h1.01c.24,0,.39.12.46.36l.12,1.01c.36-.45.75-.81,1.2-1.1.44-.28.96-.43,1.54-.43.66,0,1.18.18,1.59.55.4.37.69.87.87,1.49.13-.36.31-.66.53-.92.22-.26.47-.47.74-.64s.56-.29.87-.37c.31-.08.62-.12.94-.12.51,0,.96.08,1.36.25.4.17.73.41,1.01.72.28.32.49.71.63,1.17s.22.99.22,1.58v6.25h-1.7v-6.25c0-.77-.17-1.35-.5-1.75-.33-.4-.81-.6-1.44-.6-.28,0-.54.05-.8.15s-.47.25-.66.44-.34.44-.45.73c-.11.29-.17.64-.17,1.02v6.25h-1.7v-6.25c0-.79-.16-1.38-.47-1.76-.31-.39-.77-.58-1.36-.58-.42,0-.81.11-1.17.34s-.69.54-.99.94v7.32h-1.7Z"/>
        <path class="cls-5" d="m579.04,223.7v-13.15h1.01c.24,0,.39.12.46.36l.14,1.16c.41-.51.89-.92,1.42-1.23.53-.31,1.14-.47,1.84-.47.55,0,1.06.11,1.51.33.45.22.84.54,1.15.96.32.42.56.95.73,1.58.17.63.26,1.35.26,2.16,0,.72-.1,1.4-.29,2.02-.19.62-.46,1.16-.82,1.62-.36.46-.79.81-1.31,1.08-.52.26-1.1.39-1.75.39-.6,0-1.11-.1-1.53-.3-.42-.2-.8-.48-1.12-.85v4.34h-1.7Zm4.3-11.92c-.55,0-1.04.13-1.46.39-.42.26-.8.62-1.15,1.1v4.75c.31.43.65.73,1.03.9.37.17.79.26,1.25.26.9,0,1.59-.33,2.07-.98s.72-1.58.72-2.79c0-.64-.06-1.19-.17-1.65-.11-.46-.27-.83-.48-1.13-.21-.29-.47-.51-.77-.64-.3-.14-.65-.2-1.04-.2Z"/>
        <path class="cls-5" d="m591.84,207.47c0,.17-.03.32-.1.47-.07.15-.16.27-.27.39-.11.11-.24.2-.39.27-.15.06-.3.1-.47.1s-.32-.03-.46-.1c-.14-.06-.27-.15-.38-.27-.11-.11-.2-.24-.26-.39-.06-.15-.09-.3-.09-.47s.03-.33.09-.48.15-.28.26-.4.24-.2.38-.27c.14-.06.3-.1.46-.1s.32.03.47.1.27.15.39.27.2.25.27.4c.07.15.1.31.1.48Zm-.38,3.08v9.82h-1.7v-9.82h1.7Z"/>
        <path class="cls-5" d="m594.45,220.37v-9.82h1.01c.24,0,.39.12.46.36l.13,1.07c.42-.47.89-.85,1.41-1.14.52-.29,1.12-.44,1.8-.44.53,0,.99.09,1.4.27.4.18.74.43,1.01.76.27.33.48.72.62,1.18s.21.97.21,1.52v6.25h-1.7v-6.25c0-.74-.17-1.32-.5-1.73-.33-.41-.84-.62-1.53-.62-.5,0-.97.12-1.41.37s-.84.58-1.21,1v7.23h-1.7Z"/>
        <path class="cls-5" d="m608.31,210.39c.42,0,.81.05,1.18.14.37.09.7.23,1,.41h2.62v.64c0,.21-.13.35-.4.41l-1.1.16c.22.42.32.89.32,1.41,0,.48-.09.91-.27,1.3-.18.39-.43.73-.75,1-.32.28-.7.49-1.14.64-.44.15-.93.22-1.46.22-.45,0-.88-.05-1.28-.16-.2.13-.36.28-.46.43-.1.15-.16.3-.16.45,0,.24.09.42.28.55s.43.21.73.27c.31.05.65.08,1.04.08h1.19c.4,0,.8.04,1.19.11.39.07.73.19,1.04.35.31.16.55.39.73.68.18.29.28.66.28,1.12,0,.43-.1.84-.31,1.24-.21.4-.5.75-.89,1.06s-.86.56-1.42.75c-.56.19-1.19.28-1.9.28s-1.32-.07-1.86-.21c-.53-.14-.97-.33-1.32-.57-.35-.24-.61-.52-.79-.83-.17-.31-.26-.64-.26-.98,0-.49.15-.9.45-1.24.3-.34.72-.61,1.25-.81-.27-.13-.49-.3-.65-.52-.16-.22-.24-.51-.24-.87,0-.14.03-.29.08-.44.05-.15.13-.3.23-.45.11-.15.23-.29.39-.43.15-.14.33-.25.53-.36-.48-.27-.85-.63-1.12-1.08s-.41-.97-.41-1.58c0-.48.09-.91.27-1.3.18-.39.43-.72.76-1,.32-.27.71-.49,1.16-.63.45-.15.94-.22,1.47-.22Zm3.01,10.48c0-.25-.07-.45-.2-.6-.13-.15-.31-.27-.54-.35-.23-.08-.49-.14-.79-.18s-.61-.06-.94-.06h-1.01c-.34,0-.67-.04-.98-.13-.36.17-.66.39-.88.64-.23.25-.34.55-.34.9,0,.22.06.43.17.62s.28.36.51.5c.23.14.52.25.86.33.35.08.75.12,1.23.12s.87-.04,1.23-.13c.36-.09.67-.21.92-.37.25-.16.44-.35.58-.56.13-.22.2-.46.2-.72Zm-3.01-5.3c.34,0,.65-.05.91-.15.26-.1.48-.23.66-.41.18-.17.31-.38.4-.62.09-.24.13-.51.13-.8,0-.6-.18-1.08-.54-1.44-.36-.35-.88-.53-1.57-.53s-1.2.18-1.56.53c-.36.36-.54.83-.54,1.44,0,.29.05.56.14.8.09.24.23.45.41.62.18.17.4.31.66.41.26.1.56.15.9.15Z"/>
        <path class="cls-5" d="m493.23,249.22c0-.5.09-.97.28-1.41.19-.44.44-.82.76-1.15.32-.33.69-.58,1.12-.78.43-.19.88-.29,1.37-.29s.95.1,1.38.29.81.45,1.13.78c.32.33.58.71.76,1.15s.28.91.28,1.41-.09.96-.28,1.4c-.19.44-.44.82-.76,1.14-.32.32-.7.58-1.13.77-.43.19-.89.29-1.38.29s-.94-.1-1.37-.29c-.43-.19-.8-.45-1.12-.77s-.57-.7-.76-1.14c-.19-.44-.28-.9-.28-1.4Z"/>
        <path class="cls-5" d="m519.32,241.1v1.53h-6.56v4.86h5.61v1.53h-5.61v5.97h-1.86v-13.89h8.42Z"/>
        <path class="cls-5" d="m522.33,245.17v6.26c0,.74.17,1.32.51,1.73.34.41.84.61,1.53.61.5,0,.96-.12,1.4-.36s.84-.57,1.21-1v-7.24h1.7v9.82h-1.01c-.24,0-.39-.12-.46-.36l-.13-1.06c-.42.47-.89.85-1.41,1.14-.52.29-1.12.43-1.79.43-.53,0-.99-.09-1.4-.27-.4-.18-.74-.43-1.02-.75s-.48-.71-.61-1.17c-.14-.46-.21-.97-.21-1.52v-6.26h1.7Z"/>
        <path class="cls-5" d="m533.35,240.71v14.28h-1.7v-14.28h1.7Z"/>
        <path class="cls-5" d="m538.24,240.71v14.28h-1.7v-14.28h1.7Z"/>
        <path class="cls-5" d="m545.3,254.99v-8.35l-1.07-.13c-.13-.03-.24-.08-.33-.15s-.13-.17-.13-.3v-.71h1.53v-.95c0-.56.08-1.06.23-1.5.16-.44.38-.8.67-1.1.29-.3.64-.53,1.04-.68s.86-.23,1.37-.23c.43,0,.83.06,1.2.19l-.04.86c0,.13-.06.21-.16.23s-.25.04-.43.04h-.29c-.29,0-.56.04-.8.12s-.44.2-.62.38-.3.4-.4.69c-.09.28-.14.64-.14,1.06v.9h2.79v1.25h-2.74v8.38h-1.71Z"/>
        <path class="cls-5" d="m555.17,245.02c.58,0,1.11.1,1.6.3s.91.48,1.27.85.63.83.83,1.38c.2.55.3,1.17.3,1.87,0,.27-.03.45-.09.54-.06.09-.17.14-.32.14h-6.43c.01.62.09,1.16.25,1.62.15.46.36.84.63,1.15.27.31.58.54.95.69.37.15.78.23,1.24.23.43,0,.79-.05,1.1-.15.31-.1.57-.21.8-.32.22-.12.41-.22.56-.32s.28-.15.39-.15c.14,0,.25.06.32.16l.48.63c-.21.26-.46.48-.75.67-.29.19-.61.35-.94.47-.33.12-.68.21-1.04.28-.36.06-.71.09-1.06.09-.67,0-1.28-.11-1.85-.34-.56-.23-1.05-.57-1.46-1.01-.41-.44-.73-.99-.96-1.64-.23-.65-.34-1.4-.34-2.25,0-.68.1-1.32.31-1.92.21-.59.5-1.11.89-1.55s.86-.78,1.42-1.03c.56-.25,1.19-.37,1.89-.37Zm.04,1.27c-.82,0-1.46.24-1.94.72s-.76,1.15-.88,2h5.26c0-.4-.05-.77-.16-1.1-.11-.33-.27-.62-.48-.86-.21-.24-.47-.43-.77-.56s-.65-.2-1.04-.2Z"/>
        <path class="cls-5" d="m566.87,246.79c-.08.14-.19.21-.35.21-.09,0-.2-.04-.32-.11-.12-.07-.27-.15-.44-.24-.17-.09-.38-.17-.62-.24-.24-.07-.53-.11-.86-.11-.29,0-.54.04-.77.11-.23.07-.42.18-.59.31-.16.13-.29.28-.37.45-.09.17-.13.36-.13.56,0,.25.07.46.21.63.14.17.33.31.57.44.23.12.5.23.8.32s.61.19.92.3c.31.11.62.22.92.35s.57.29.8.48.42.43.57.71c.14.28.21.62.21,1.01,0,.45-.08.87-.24,1.26-.16.38-.39.72-.71,1-.31.28-.69.5-1.14.66-.45.16-.97.24-1.56.24-.67,0-1.29-.11-1.83-.33-.55-.22-1.01-.51-1.39-.86l.4-.66c.05-.08.11-.15.18-.19.07-.05.16-.07.28-.07s.23.04.36.14c.13.09.28.19.46.3.18.11.4.21.66.3.26.09.58.14.97.14.33,0,.62-.04.87-.13.25-.09.46-.21.62-.35.17-.15.29-.32.37-.51s.12-.4.12-.62c0-.27-.07-.5-.21-.67-.14-.18-.33-.33-.57-.46s-.5-.24-.81-.33-.61-.19-.92-.3c-.32-.1-.62-.22-.93-.35-.3-.13-.57-.3-.81-.5-.24-.2-.42-.45-.57-.74-.14-.29-.21-.65-.21-1.07,0-.37.08-.73.23-1.08.15-.35.38-.65.67-.91.29-.26.65-.47,1.08-.62.43-.16.91-.23,1.46-.23.64,0,1.21.1,1.71.31.51.2.94.48,1.31.84l-.38.63Z"/>
        <path class="cls-5" d="m572.54,255.15c-.76,0-1.35-.22-1.76-.65-.41-.43-.62-1.06-.62-1.87v-6.01h-1.16c-.1,0-.19-.03-.26-.09-.07-.06-.1-.16-.1-.29v-.69l1.58-.2.39-3.03c.01-.1.05-.18.12-.24.07-.06.16-.09.27-.09h.86v3.38h2.77v1.25h-2.77v5.89c0,.41.1.72.3.92.2.2.45.3.76.3.18,0,.33-.02.46-.07.13-.05.24-.1.34-.16.1-.06.18-.11.24-.16.07-.05.13-.07.18-.07.09,0,.17.06.24.17l.5.82c-.29.28-.65.5-1.06.65s-.84.24-1.28.24Z"/>
        <path class="cls-5" d="m579,242.09c0,.17-.03.32-.1.47-.07.15-.16.27-.27.39-.11.11-.24.2-.39.27-.15.06-.3.1-.47.1s-.32-.03-.46-.1c-.14-.06-.27-.15-.38-.27-.11-.11-.2-.24-.26-.39-.06-.15-.09-.3-.09-.47s.03-.33.09-.48.15-.28.26-.4.24-.2.38-.27c.14-.06.3-.1.46-.1s.32.03.47.1.27.15.39.27.2.25.27.4c.07.15.1.31.1.48Zm-.38,3.08v9.82h-1.7v-9.82h1.7Z"/>
        <path class="cls-5" d="m580.39,245.17h1.39c.13,0,.24.04.33.11.09.07.15.16.19.25l2.45,6.32c.09.23.16.47.21.7s.1.46.14.69c.05-.23.11-.46.16-.69.06-.23.13-.47.22-.7l2.48-6.32c.04-.1.1-.19.19-.26s.19-.1.32-.1h1.33l-3.94,9.82h-1.54l-3.94-9.82Z"/>
        <path class="cls-5" d="m598.48,254.99h-.75c-.17,0-.3-.03-.4-.08-.1-.05-.17-.16-.2-.33l-.19-.91c-.25.23-.5.44-.74.63-.24.18-.5.34-.76.46-.27.13-.55.22-.85.29s-.64.1-1.01.1-.73-.05-1.05-.16c-.33-.11-.61-.27-.85-.48-.24-.21-.43-.48-.58-.81-.14-.33-.21-.71-.21-1.16,0-.39.1-.76.31-1.12s.55-.68,1.02-.96,1.08-.51,1.84-.69c.76-.18,1.68-.27,2.78-.27v-.77c0-.77-.16-1.35-.48-1.74s-.8-.59-1.43-.59c-.41,0-.76.05-1.04.16-.28.11-.53.23-.73.36-.21.13-.38.25-.53.36s-.3.16-.44.16c-.11,0-.21-.03-.3-.09s-.15-.14-.21-.23l-.31-.55c.53-.52,1.11-.91,1.73-1.17.62-.26,1.3-.39,2.05-.39.54,0,1.02.09,1.44.27.42.18.77.43,1.06.76s.5.71.65,1.17c.15.46.22.96.22,1.51v6.28Zm-4.41-1.06c.3,0,.57-.03.82-.09.25-.06.48-.15.7-.26.22-.11.43-.25.63-.41.2-.16.4-.35.59-.55v-2.03c-.78,0-1.45.05-1.99.15-.55.1-.99.23-1.33.4-.34.16-.59.35-.75.58-.16.22-.23.47-.23.74s.04.48.12.67c.08.19.19.34.33.46.14.12.31.21.5.26.19.06.4.08.62.08Z"/>
        <path class="cls-5" d="m602.94,240.71v14.28h-1.7v-14.28h1.7Z"/>
        <path class="cls-5" d="m616.71,254.99h-.75c-.17,0-.3-.03-.4-.08-.1-.05-.17-.16-.2-.33l-.19-.91c-.25.23-.5.44-.74.63-.24.18-.5.34-.76.46-.27.13-.55.22-.85.29s-.64.1-1.01.1-.73-.05-1.05-.16c-.33-.11-.61-.27-.85-.48-.24-.21-.43-.48-.58-.81-.14-.33-.21-.71-.21-1.16,0-.39.1-.76.31-1.12s.55-.68,1.02-.96,1.08-.51,1.84-.69c.76-.18,1.68-.27,2.78-.27v-.77c0-.77-.16-1.35-.48-1.74s-.8-.59-1.43-.59c-.41,0-.76.05-1.04.16-.28.11-.53.23-.73.36-.21.13-.38.25-.53.36s-.3.16-.44.16c-.11,0-.21-.03-.3-.09s-.15-.14-.21-.23l-.31-.55c.53-.52,1.11-.91,1.73-1.17.62-.26,1.3-.39,2.05-.39.54,0,1.02.09,1.44.27.42.18.77.43,1.06.76s.5.71.65,1.17c.15.46.22.96.22,1.51v6.28Zm-4.41-1.06c.3,0,.57-.03.82-.09.25-.06.48-.15.7-.26.22-.11.43-.25.63-.41.2-.16.4-.35.59-.55v-2.03c-.78,0-1.45.05-1.99.15-.55.1-.99.23-1.33.4-.34.16-.59.35-.75.58-.16.22-.23.47-.23.74s.04.48.12.67c.08.19.19.34.33.46.14.12.31.21.5.26.19.06.4.08.62.08Z"/>
        <path class="cls-5" d="m625.88,246.92c-.05.07-.1.13-.15.17-.05.04-.12.06-.22.06s-.2-.04-.31-.12-.25-.17-.42-.27c-.17-.1-.38-.19-.62-.27-.25-.08-.54-.12-.9-.12-.47,0-.89.09-1.25.26s-.67.42-.91.74-.43.71-.55,1.17c-.12.46-.19.97-.19,1.54s.07,1.12.2,1.58c.13.46.32.85.56,1.16.24.31.54.55.88.72.35.16.74.25,1.17.25s.75-.05,1.02-.15c.27-.1.49-.21.67-.33.18-.12.32-.23.44-.33s.23-.15.34-.15c.15,0,.25.06.32.16l.48.63c-.42.52-.94.91-1.57,1.15-.63.24-1.29.36-1.99.36-.6,0-1.17-.11-1.68-.34-.52-.23-.97-.55-1.35-.98-.38-.43-.68-.96-.9-1.58-.22-.63-.33-1.34-.33-2.14,0-.73.1-1.41.3-2.03.2-.62.49-1.15.88-1.6s.86-.8,1.43-1.05c.57-.25,1.21-.38,1.95-.38.67,0,1.27.11,1.79.33.52.22.98.54,1.38.95l-.45.62Z"/>
        <path class="cls-5" d="m634.79,246.92c-.05.07-.1.13-.15.17-.05.04-.12.06-.22.06s-.2-.04-.31-.12-.25-.17-.42-.27c-.17-.1-.38-.19-.62-.27-.25-.08-.54-.12-.9-.12-.47,0-.89.09-1.25.26s-.67.42-.91.74-.43.71-.55,1.17c-.12.46-.19.97-.19,1.54s.07,1.12.2,1.58c.13.46.32.85.56,1.16.24.31.54.55.88.72.35.16.74.25,1.17.25s.75-.05,1.02-.15c.27-.1.49-.21.67-.33.18-.12.32-.23.44-.33s.23-.15.34-.15c.15,0,.25.06.32.16l.48.63c-.42.52-.94.91-1.57,1.15-.63.24-1.29.36-1.99.36-.6,0-1.17-.11-1.68-.34-.52-.23-.97-.55-1.35-.98-.38-.43-.68-.96-.9-1.58-.22-.63-.33-1.34-.33-2.14,0-.73.1-1.41.3-2.03.2-.62.49-1.15.88-1.6s.86-.8,1.43-1.05c.57-.25,1.21-.38,1.95-.38.67,0,1.27.11,1.79.33.52.22.98.54,1.38.95l-.45.62Z"/>
        <path class="cls-5" d="m640.93,245.02c.58,0,1.11.1,1.6.3s.91.48,1.27.85.63.83.83,1.38c.2.55.3,1.17.3,1.87,0,.27-.03.45-.09.54-.06.09-.17.14-.32.14h-6.43c.01.62.09,1.16.25,1.62.15.46.36.84.63,1.15.27.31.58.54.95.69.37.15.78.23,1.24.23.43,0,.79-.05,1.1-.15.31-.1.57-.21.8-.32.22-.12.41-.22.56-.32s.28-.15.39-.15c.14,0,.25.06.32.16l.48.63c-.21.26-.46.48-.75.67-.29.19-.61.35-.94.47-.33.12-.68.21-1.04.28-.36.06-.71.09-1.06.09-.67,0-1.28-.11-1.85-.34-.56-.23-1.05-.57-1.46-1.01-.41-.44-.73-.99-.96-1.64-.23-.65-.34-1.4-.34-2.25,0-.68.1-1.32.31-1.92.21-.59.5-1.11.89-1.55s.86-.78,1.42-1.03c.56-.25,1.19-.37,1.89-.37Zm.04,1.27c-.82,0-1.46.24-1.94.72s-.76,1.15-.88,2h5.26c0-.4-.05-.77-.16-1.1-.11-.33-.27-.62-.48-.86-.21-.24-.47-.43-.77-.56s-.65-.2-1.04-.2Z"/>
        <path class="cls-5" d="m652.63,246.79c-.08.14-.19.21-.35.21-.09,0-.2-.04-.32-.11-.12-.07-.27-.15-.44-.24-.17-.09-.38-.17-.62-.24-.24-.07-.53-.11-.86-.11-.29,0-.54.04-.77.11-.23.07-.42.18-.59.31-.16.13-.29.28-.37.45-.09.17-.13.36-.13.56,0,.25.07.46.21.63.14.17.33.31.57.44.23.12.5.23.8.32s.61.19.92.3c.31.11.62.22.92.35s.57.29.8.48.42.43.57.71c.14.28.21.62.21,1.01,0,.45-.08.87-.24,1.26-.16.38-.39.72-.71,1-.31.28-.69.5-1.14.66-.45.16-.97.24-1.56.24-.67,0-1.29-.11-1.83-.33-.55-.22-1.01-.51-1.39-.86l.4-.66c.05-.08.11-.15.18-.19.07-.05.16-.07.28-.07s.23.04.36.14c.13.09.28.19.46.3.18.11.4.21.66.3.26.09.58.14.97.14.33,0,.62-.04.87-.13.25-.09.46-.21.62-.35.17-.15.29-.32.37-.51s.12-.4.12-.62c0-.27-.07-.5-.21-.67-.14-.18-.33-.33-.57-.46s-.5-.24-.81-.33-.61-.19-.92-.3c-.32-.1-.62-.22-.93-.35-.3-.13-.57-.3-.81-.5-.24-.2-.42-.45-.57-.74-.14-.29-.21-.65-.21-1.07,0-.37.08-.73.23-1.08.15-.35.38-.65.67-.91.29-.26.65-.47,1.08-.62.43-.16.91-.23,1.46-.23.64,0,1.21.1,1.71.31.51.2.94.48,1.31.84l-.38.63Z"/>
        <path class="cls-5" d="m660.91,246.79c-.08.14-.19.21-.35.21-.09,0-.2-.04-.32-.11-.12-.07-.27-.15-.44-.24-.17-.09-.38-.17-.62-.24-.24-.07-.53-.11-.86-.11-.29,0-.54.04-.77.11-.23.07-.42.18-.59.31-.16.13-.29.28-.37.45-.09.17-.13.36-.13.56,0,.25.07.46.21.63.14.17.33.31.57.44.23.12.5.23.8.32s.61.19.92.3c.31.11.62.22.92.35s.57.29.8.48.42.43.57.71c.14.28.21.62.21,1.01,0,.45-.08.87-.24,1.26-.16.38-.39.72-.71,1-.31.28-.69.5-1.14.66-.45.16-.97.24-1.56.24-.67,0-1.29-.11-1.83-.33-.55-.22-1.01-.51-1.39-.86l.4-.66c.05-.08.11-.15.18-.19.07-.05.16-.07.28-.07s.23.04.36.14c.13.09.28.19.46.3.18.11.4.21.66.3.26.09.58.14.97.14.33,0,.62-.04.87-.13.25-.09.46-.21.62-.35.17-.15.29-.32.37-.51s.12-.4.12-.62c0-.27-.07-.5-.21-.67-.14-.18-.33-.33-.57-.46s-.5-.24-.81-.33-.61-.19-.92-.3c-.32-.1-.62-.22-.93-.35-.3-.13-.57-.3-.81-.5-.24-.2-.42-.45-.57-.74-.14-.29-.21-.65-.21-1.07,0-.37.08-.73.23-1.08.15-.35.38-.65.67-.91.29-.26.65-.47,1.08-.62.43-.16.91-.23,1.46-.23.64,0,1.21.1,1.71.31.51.2.94.48,1.31.84l-.38.63Z"/>
      </g>
    </g>
  </g>
</svg>